<?xml version="1.0" encoding="utf-8"?>
<!-- Generator: Adobe Illustrator 24.0.2, SVG Export Plug-In . SVG Version: 6.00 Build 0)  -->
<svg version="1.1" id="Layer_1" xmlns="http://www.w3.org/2000/svg" xmlns:xlink="http://www.w3.org/1999/xlink" x="0px" y="0px"
	 viewBox="0 0 1085 1080" style="enable-background:new 0 0 1085 1080;" xml:space="preserve">
<g>
	<path d="M561.3,476.7c-14.7,15.7-22,35.8-22,60.3c0,10.5,1.6,20.8,4.7,30.9c3.1,10.1,8.7,19.2,16.8,27.2c8,8,18.7,14.3,32,18.9
		c13.3,4.6,30.4,6.8,51.4,6.8h165.6c48.2,0,87.7,6.1,118.4,18.3c30.7,12.2,55,28.1,72.8,47.7c17.8,19.6,30,41.9,36.7,67.1
		c6.6,25.2,10,50.3,10,75.5V453.1H631.5C599.3,453.1,575.9,461,561.3,476.7z"/>
	<path d="M635.7,329.4h411.9V29H540.7v313.7C567.4,333.9,599.1,329.4,635.7,329.4z"/>
	<path d="M1047.6,1037V829.4c0,30-4.2,57.6-12.6,82.8c-8.4,25.1-21.7,47-39.8,65.5c-18.2,18.5-41.4,33-69.7,43.5
		c-28.3,10.5-62.7,15.7-103.2,15.7L1047.6,1037z"/>
	<path d="M428.2,1036.9V913.2h398.3c33.5,0,58.2-8.2,73.9-24.6c15.7-16.4,23.6-37.5,23.6-63.4c0-11.2-1.7-22.2-5.2-33
		c-3.5-10.8-9.4-20.3-17.8-28.3c-8.4-8-19.8-14.5-34.1-19.4c-14.3-4.9-32.3-7.3-54-7.3H648.3c-47.5,0-86.3-5.9-116.3-17.8
		c-26.5-10.5-48-24-64.4-40.4c-18.9,16.2-41.9,29.3-68.9,39.2c-33.2,12.2-73.2,18.3-120,18.3h-240V1037L428.2,1036.9z"/>
	<path d="M341,603.4c18.5-6.3,33.4-14.8,44.5-25.7c11.2-10.8,19-23.8,23.6-38.8c4.5-15,6.8-30.9,6.8-47.7V29H38.6v583.8h232.7
		C299.2,612.8,322.5,609.6,341,603.4z"/>
</g>
</svg>
