<?xml version="1.0" encoding="utf-8"?>
<!-- Generator: Adobe Illustrator 24.0.2, SVG Export Plug-In . SVG Version: 6.00 Build 0)  -->
<svg version="1.1" id="Layer_1" xmlns="http://www.w3.org/2000/svg" xmlns:xlink="http://www.w3.org/1999/xlink" x="0px" y="0px"
	 viewBox="0 0 1085 1080" style="enable-background:new 0 0 1085 1080;" xml:space="preserve">
<g>
	<path d="M293.2,726.9H322c26.1,0,48.8-3.5,67.5-10.4c18.9-7,34.7-16.8,46.8-29.3c12.1-12.5,21.1-27.5,26.7-44.6
		c5.5-16.8,8.3-35.4,8.3-55.4v-258h-82.9v257.5c0,8.2-1.1,16.2-3.3,23.5c-2.1,6.9-5.6,12.7-10.7,17.6c-5.2,5-12.3,9.1-21.2,12.1
		c-9.2,3.1-21,4.7-35.2,4.7H186.2L118.9,528l210-363.8h420.1l47.8,82.8h94.9L796.5,82h-515L24,528l114.5,198.3h154.7V726.9z"/>
	<path d="M939.2,329.1H934H776.7H643.8c-21.9,0-41.1,2.9-57,8.7c-16.1,5.8-29.6,14.2-40,24.8c-10.4,10.7-18.1,23.4-22.8,37.9
		c-4.6,14.1-6.9,29.7-6.9,46.3c0,13.9,1.9,27.9,5.6,41.7c3.9,14.3,10.9,27.3,20.9,38.8c10,11.5,23.9,20.7,41.2,27.6
		c17,6.7,39.2,10.2,65.7,10.2h88.9c10.8,0,19.7,1.2,26.7,3.5c6.6,2.3,11.9,5.2,15.5,8.7c3.6,3.5,6.1,7.4,7.6,12.1
		c1.6,5.1,2.5,10.3,2.5,15.5c0,12-3.5,21.5-10.6,28.9c-6.9,7.2-18.5,10.9-34.3,10.9H524v82.3h220.7c22.7,0,42.4-3,58.5-9
		c16.3-6,29.9-14.6,40.5-25.3c10.6-10.8,18.4-23.7,23.3-38.4c4.8-14.3,7.2-30.2,7.2-47.2c0-14.2-1.9-28.6-5.6-42.7
		c-3.9-14.7-11.2-28-21.6-39.5c-10.4-11.4-24.6-20.7-42.2-27.7c-17.5-6.9-40-10.5-66.8-10.5h-89.5c-10.4,0-18.9-1.1-25.2-3.3
		c-6-2.1-10.8-4.9-14.3-8.3c-3.5-3.4-5.8-7.2-7.1-11.5c-1.5-4.7-2.2-9.6-2.2-14.4c0-11.3,3.2-20.2,9.8-27.3
		c6.4-6.8,17.2-10.3,32.3-10.3h250.3L959.1,528L749.1,891.8H329l-48.1-83.3H186L281.5,974h515L1054,528L939.2,329.1z"/>
</g>
</svg>
