<svg id="Layer_1" data-name="Layer 1" xmlns="http://www.w3.org/2000/svg" viewBox="0 0 999 1080"><defs><style>.cls-1{fill:#7510f7;}.cls-2{fill:#fce2ca;}.cls-3{fill:#e7c3a5;}.cls-4{fill:#754c28;}.cls-5{fill:#b6825c;}.cls-6{fill:#fdc46b;}.cls-7{fill:#9abe3c;opacity:0.68;}.cls-8{fill:#fff;}.cls-9{fill:#ef5273;}</style></defs><title>Artboard 1</title><circle class="cls-1" cx="501.62" cy="588.9" r="470.1"/><path d="M501.62,1059c145.87,0,276.21-66.44,362.44-170.7-36-92.53-125.89-158.14-231.16-158.14H370.34c-105.26,0-195.15,65.61-231.16,158.14C225.41,992.56,355.75,1059,501.62,1059Z"/><path class="cls-2" d="M410.25,605V732.79a93,93,0,0,0,185.94,0V605Z"/><path class="cls-3" d="M410.25,605V712.28c26,11,56.71,17.78,92.89,17.8h.16c36.19,0,66.91-6.78,92.89-17.8V605Z"/><path class="cls-2" d="M724.39,330.37c-15.11-2.8-8.87-25.13-14.45-47.8-9.53-56.51-31.87-92.15-45.67-102.74s-42.62-44.11-42.62-44.11H384.8S356,169.23,342.17,179.83,306,226.06,296.51,282.57c-5.59,22.67.66,45-14.46,47.8-26.5,8.41-34,10.84-34,69s8.38,63.08,34,78.35c0,42.37,48.92,194.54,221.09,194.64h.17c172.16-.1,221.08-152.27,221.08-194.64,25.63-15.27,34-20.2,34-78.35S750.9,338.78,724.39,330.37Z"/><path class="cls-3" d="M501.62,499c28.8,0,52.15-14.95,52.15-33.39H449.47C449.47,484,472.82,499,501.62,499Z"/><path class="cls-4" d="M718.65,168.76c-2.92-7.16-5.61-14.42-8.81-21.46-12.31-27.08-34.68-44.89-57.74-62-16.26-12-16.35-11.93-10.26-30.56.2-.61.26-1.26.42-1.89.87-3.46,2.25-7.19-.85-10s-6.82-1.39-10.07,0c-8.48,3.5-17,6.9-26.17,8.74-.06-5.86,6.51-11.48.56-15.79-5.19-3.76-10.13,1.87-15.13,3.5-6.14,2-10.7,7.79-18.21,8.19,1.78-2.86,3.25-5,4.48-7.27,2.15-4,5.37-8.48,1.65-12.45-3.4-3.62-7.93-.7-11.68,1-5.88,2.63-11.53,5.67-17.74,7.72-31.05,10.22-63.53,11.31-95.55,15.36-21.17,2.68-42.37,5.44-62,14.29-47.16,21.26-84.34,52.71-103,102.68a6.45,6.45,0,0,1,0,1.92c-16.44,47.75-16.61,97.19-14.7,146.73.15,3.76.62,8.55,1.25,13.86a15.69,15.69,0,0,1,17.18-.12c.11-3.24.26-6.2.47-8.74,5.73-42,13.85-83.56,40.09-118.12,14.65-19.3,33-35.78,49.56-53.67,2.8-3,5.9-3.31,9.61-3.23,30.56.61,61.13,2,91.67,1.39,39.54-.73,79.28,1,118.45-6.59,6.16-1.2,11.11.9,14.43,5.81C628.06,165,644,177.29,660,189.56c25.46,19.49,36.92,47,42.65,77.31,3.43,18.11,5.2,36.52,7.81,54.78.08.61.2,3.49.32,8a16,16,0,0,1,15.16-.06c.09-2.34.19-4,.28-4.81,1.44-12.52,3.46-25,3.79-37.6C731,247.25,728.78,207.6,718.65,168.76Z"/><path class="cls-5" d="M715.43,479.27a15.16,15.16,0,0,1-6.95-1.58,152.22,152.22,0,0,1-9.69,33.85c-11.34,26.83-33.85,40.16-60.33,47.66-11.17,3.17-15.64-.15-20.31-11.29-2-4.75-3.8-9.61-5.33-14.54-7.89-25.49-28.7-34.47-51.77-40-7.8-1.87-16.13-1.53-24.22-2.21-10.45,1.56-21.36.89-31,6.43a4,4,0,0,1-4.47,0c-9.61-5.51-20.53-4.87-31-6.44-12.25.9-24.38,1.53-36.33,5.49-20.88,6.92-35.12,19.63-41.62,41-6.37,21-9.1,28.9-39.42,16.29-34.25-14.25-49.66-41.68-54.44-76.7-.06-.44-.15-1.27-.25-2.36-4.92,3.39-11.7,4.15-16.79,1.33,0,4.35,0,8.71,0,13.07,1.11,8.3,1.87,16.67,3.38,24.9,9.17,50,32.08,92.38,70.66,126,16.26,14.18,35.36,23.35,54.57,32.44,17.77,4.68,35.24,10.38,53.32,14,38.12,7.66,75.38,3.59,112.33-6.77,7.15-2,14.23-4.24,21.35-6.37,56.88-22.83,93.59-64.85,115.07-121.24,7.74-20.3,11.29-41.53,13.36-63,.06-4.64,0-9.28,0-13.92A14.12,14.12,0,0,1,715.43,479.27ZM550.17,634.73c-6.28,1.32-11.21,0-16-4.37-20.1-18.32-41-18.18-61.46.16-7.38,6.61-17.33,7.22-28.62-.49-17.85-12.21-31.61-27.68-35-50.34C405,552.55,426,526.7,453,526.11c16.43-.36,33.24,2.32,48.82-5.71a4.68,4.68,0,0,1,3.74,0c14.6,7.62,30.4,5.51,45.89,5.68,27.42.3,47.13,20.2,47.33,48C598.93,598.32,573.55,629.83,550.17,634.73Z"/><path class="cls-6" d="M689.08,323.4c-16.36-11.34-39.23-17.09-68-17.09-11.84,0-36.48,0-58.72,6.22-21.41,6-32.89,15.74-38.72,26-17.39-9.23-35.6-3.86-44.25-.23-5.87-10.18-17.34-19.84-38.58-25.78-22.24-6.22-46.88-6.22-58.73-6.22-28.73,0-51.59,5.75-68,17.09-18.71,13-28.2,32.61-28.2,58.4,0,28,7.71,53.44,21.7,71.76,14.13,18.5,33.74,28.69,55.19,28.69,25.84,0,56.38-15.13,81.69-40.49s40.44-56,40.44-81.93a45.06,45.06,0,0,0-1.47-11.61c7-2.91,22.39-7.53,36.14.31a45.63,45.63,0,0,0-1.39,11.3c0,25.93,15.12,56.56,40.44,81.93s55.85,40.49,81.69,40.49c21.46,0,41.06-10.19,55.2-28.69,14-18.32,21.69-43.8,21.69-71.76C717.28,356,707.8,336.36,689.08,323.4ZM437,434.2c-23.35,23.39-51.06,37.36-74.12,37.36-18,0-34.63-8.7-46.7-24.5-12.57-16.46-19.49-39.63-19.49-65.26,0-53.55,46.47-64.8,85.46-64.8,62,0,92.17,14,92.17,42.83C474.29,383,460.34,410.8,437,434.2Zm250.12,12.86c-12.07,15.8-28.65,24.5-46.7,24.5-23.06,0-50.77-14-74.12-37.36S529,383,529,359.83C529,331,559.1,317,621.12,317c39,0,85.47,11.25,85.47,64.8C706.59,407.43,699.66,430.6,687.09,447.06Z"/><path class="cls-4" d="M637,399.66c-4.69-14.42-20.59-25.72-36.21-25.72s-31.52,11.3-36.21,25.72a1.62,1.62,0,0,0,1.55,2.13,1.61,1.61,0,0,0,1-.37c12.91-10.53,23.79-12,33.63-12s20.72,1.45,33.63,12a1.64,1.64,0,0,0,2,.09A1.62,1.62,0,0,0,637,399.66Z"/><path class="cls-4" d="M365.33,399.66c4.69-14.42,20.59-25.72,36.21-25.72s31.52,11.3,36.21,25.72a1.63,1.63,0,0,1-2.58,1.76c-12.91-10.53-23.79-12-33.63-12s-20.72,1.45-33.63,12a1.64,1.64,0,0,1-2,.09A1.62,1.62,0,0,1,365.33,399.66Z"/><path class="cls-4" d="M451.85,295.76c-13.92-15.74-47.4-17.16-55.61-16.68-.36,0-36,3.82-46.48,31.7A2.35,2.35,0,0,0,352,314a2.39,2.39,0,0,0,.83-.15c10.64-3.94,49.13-16.59,97.17-14.17a2.37,2.37,0,0,0,2.25-1.35A2.25,2.25,0,0,0,451.85,295.76Z"/><path class="cls-4" d="M555.07,295.76C569,280,602.48,278.6,610.69,279.08c.35,0,36,3.82,46.47,31.7a2.31,2.31,0,0,1-.53,2.48,2.33,2.33,0,0,1-1.66.7,2.37,2.37,0,0,1-.82-.15C643.5,309.87,605,297.22,557,299.64a2.38,2.38,0,0,1-2.25-1.35A2.27,2.27,0,0,1,555.07,295.76Z"/><path class="cls-4" d="M566,540.73v0a3.25,3.25,0,0,0-3.25-3.21h-6.71v3.7A14.82,14.82,0,0,1,541.26,556h-79a14.82,14.82,0,0,1-14.81-14.82v-3.7h-6.71a3.24,3.24,0,0,0-3.25,3.21v0a64.09,64.09,0,0,0,20.49,47c7.51-6.62,23.67-16.73,43.78-5.21,13.73-12.37,33.81-2.48,44.54,4.5A64.08,64.08,0,0,0,566,540.73Z"/><path class="cls-7" d="M462.25,556h79a14.82,14.82,0,0,0,14.81-14.82v-3.7H447.44v3.7A14.82,14.82,0,0,0,462.25,556Z"/><path class="cls-8" d="M462.25,556h79a14.82,14.82,0,0,0,14.81-14.82v-3.7H447.44v3.7A14.82,14.82,0,0,0,462.25,556Z"/><path class="cls-9" d="M501.75,582.55c-20.11-11.52-36.27-1.41-43.78,5.21a64.22,64.22,0,0,0,88.32-.71C535.56,580.07,515.48,570.18,501.75,582.55Z"/></svg>