<svg id="Layer_1" data-name="Layer 1" xmlns="http://www.w3.org/2000/svg" viewBox="0 0 999 1080"><defs><style>.cls-1{fill:#707070;}.cls-2{fill:#fce2ca;}.cls-3{fill:#e7c3a5;}.cls-4{fill:#754c28;}.cls-5{fill:#4b332e;}.cls-6{fill:#b6825c;}.cls-7{fill:#fdc46b;}</style></defs><title>2</title><circle class="cls-1" cx="505.43" cy="588.9" r="470.1"/><path d="M505.43,1059c145.87,0,276.21-66.44,362.44-170.7-36-92.53-125.89-158.14-231.16-158.14H374.15C268.89,730.16,179,795.77,143,888.3,229.22,992.56,359.57,1059,505.43,1059Z"/><path class="cls-2" d="M414.07,605V732.79a93,93,0,1,0,185.93,0V605Z"/><path class="cls-3" d="M414.07,605V712.28c26,11,56.7,17.78,92.88,17.8h.17c36.18,0,66.9-6.78,92.88-17.8V605Z"/><path class="cls-2" d="M728.2,330.37c-15.11-2.8-8.87-25.13-14.45-47.8-9.53-56.51-31.87-92.15-45.66-102.74s-42.63-44.11-42.63-44.11H388.61S359.78,169.23,346,179.83s-36.13,46.23-45.66,102.74c-5.59,22.67.66,45-14.45,47.8-26.51,8.41-34,10.84-34,69s8.38,63.08,34,78.35c0,42.37,48.91,194.54,221.08,194.64h.17c172.16-.1,221.08-152.27,221.08-194.64,25.63-15.27,34-20.2,34-78.35S754.71,338.78,728.2,330.37Z"/><path class="cls-4" d="M677.09,335.16a10.62,10.62,0,0,1-8.7-4.51C637.22,286.4,565.75,301.19,565,301.34a10.64,10.64,0,0,1-4.51-20.79c3.49-.76,85.93-18,125.26,37.85a10.63,10.63,0,0,1-8.69,16.76Z"/><path class="cls-4" d="M333.77,335.16a10.63,10.63,0,0,1-8.68-16.76c39.32-55.85,121.76-38.61,125.26-37.85a10.64,10.64,0,0,1-4.52,20.79c-.8-.18-72.21-14.92-103.35,29.31A10.65,10.65,0,0,1,333.77,335.16Z"/><circle class="cls-5" cx="426.02" cy="373.51" r="26.08"/><circle class="cls-5" cx="631.03" cy="373.51" r="26.08"/><path class="cls-3" d="M505.43,499c28.8,0,52.15-14.95,52.15-33.39H453.28C453.28,484,476.63,499,505.43,499Z"/><path class="cls-4" d="M722.46,168.76c-2.92-7.16-5.61-14.42-8.81-21.46-12.31-27.08-34.68-44.89-57.74-62-16.26-12-16.35-11.93-10.26-30.56.2-.61.27-1.26.42-1.89.87-3.46,2.25-7.19-.85-10s-6.82-1.39-10.07,0c-8.48,3.5-17,6.9-26.17,8.74-.06-5.86,6.51-11.48.56-15.79-5.19-3.76-10.13,1.87-15.13,3.5-6.14,2-10.7,7.79-18.2,8.19,1.77-2.86,3.24-5,4.47-7.27,2.15-4,5.37-8.48,1.65-12.45-3.4-3.62-7.92-.7-11.68,1-5.88,2.63-11.53,5.67-17.74,7.72-31,10.22-63.53,11.31-95.55,15.36-21.17,2.68-42.37,5.44-62,14.29-47.16,21.26-84.34,52.71-103,102.68a6.45,6.45,0,0,1,0,1.92c-16.44,47.75-16.61,97.19-14.7,146.73.15,3.76.62,8.55,1.25,13.86a15.69,15.69,0,0,1,17.18-.12c.11-3.24.26-6.2.47-8.74,5.73-42,13.85-83.56,40.09-118.12,14.65-19.3,33-35.78,49.56-53.67,2.8-3,5.9-3.31,9.61-3.23,30.56.61,61.13,2,91.67,1.39,39.54-.73,79.28,1,118.45-6.59,6.16-1.2,11.11.9,14.43,5.81,11.51,17,27.41,29.29,43.43,41.56,25.46,19.49,36.93,47,42.65,77.31,3.43,18.11,5.2,36.52,7.81,54.78.08.61.2,3.49.32,8a16,16,0,0,1,15.16-.06c.09-2.34.19-4,.28-4.81,1.44-12.52,3.46-25,3.79-37.6C734.85,247.25,732.59,207.6,722.46,168.76Z"/><path class="cls-6" d="M719.24,479.27a15.16,15.16,0,0,1-7-1.58,152.22,152.22,0,0,1-9.69,33.85c-11.34,26.83-33.85,40.16-60.33,47.66-11.17,3.17-15.64-.15-20.31-11.29-2-4.75-3.8-9.61-5.33-14.54-7.89-25.49-28.7-34.47-51.77-40-7.8-1.87-16.13-1.53-24.22-2.21-10.45,1.56-21.36.89-31,6.43a4,4,0,0,1-4.47,0c-9.61-5.51-20.53-4.87-31-6.44-12.25.9-24.38,1.53-36.33,5.49-20.88,6.92-35.12,19.63-41.62,41-6.37,21-9.1,28.9-39.42,16.29-34.25-14.25-49.65-41.68-54.44-76.7-.06-.44-.15-1.27-.25-2.36-4.92,3.39-11.7,4.15-16.78,1.33q0,6.52,0,13.07c1.11,8.3,1.87,16.67,3.38,24.9,9.18,50,32.08,92.38,70.66,126,16.26,14.18,35.36,23.35,54.57,32.44,17.77,4.68,35.24,10.38,53.32,14,38.12,7.66,75.39,3.59,112.33-6.77,7.15-2,14.23-4.24,21.35-6.37,56.88-22.83,93.59-64.85,115.08-121.24,7.73-20.3,11.28-41.53,13.35-63,.06-4.64.05-9.28,0-13.92A14.12,14.12,0,0,1,719.24,479.27ZM554,634.73c-6.28,1.32-11.21,0-16-4.37-20.1-18.32-41-18.18-61.45.16-7.39,6.61-17.34,7.22-28.63-.49-17.85-12.21-31.61-27.68-35-50.34-4.1-27.14,16.94-53,43.9-53.58,16.43-.36,33.24,2.32,48.82-5.71a4.68,4.68,0,0,1,3.74,0c14.6,7.62,30.4,5.51,45.89,5.68,27.42.3,47.13,20.2,47.33,48C602.74,598.32,577.36,629.83,554,634.73Z"/><path class="cls-2" d="M445.62,846.8a116.2,116.2,0,0,0,56,3.79c2.2-.39,4.49-1.88,6.87-.49L534.32,840c.1-.37.08-.92.31-1.08,16.51-10.88,32.9-21.93,49.59-32.52,11.82-7.5,19.59-17.41,21.4-31.53-1.32-3.58-2.23-7.38-4-10.69-2.57-4.66-6.91-7.1-12.47-7.14.61-2.89,2.84-4.19,4.29-6,10.1-12.74,5-37.07-12.9-39.27-3.94-.49-3.87-1.72-1.94-5,8.9-14.94,5.68-31.28-7.65-38.88-3.58-2-7.82-2.92-12.79-4.7l19.8-14c20.11-14.16,40.36-28.14,60.3-42.54,9.51-6.87,12.64-18.28,8.57-27.72-4.6-10.69-14.29-16.77-24.68-15.29-8.09,1.15-14.18,6.37-20.56,10.76q-70.23,48.24-140.3,96.7a11,11,0,0,1-2.56,1.54c-2.37.79-4.81,3.06-7.3,1s-1.67-5.21-.64-7.83c8.84-22.4,3.31-42.88-8.53-62.37-7.32-12.07-15.76-23.26-28.19-30.69-11.41-6.82-23.11-10.66-36.55-5.59-12.22,4.6-12.89,19.14-7.77,26.61,6,8.73,12.92,16.86,17.36,26.57,9.7,21.22,7,41.32-4.07,61.57-11.56,21.07-20,43.43-18.22,68.26a69.76,69.76,0,0,0,1.37,9.81h0S246,824.11,184.52,931.7l-.46.85a471.21,471.21,0,0,0,109,76.17l1.05-.18S383.22,911.87,445.62,846.8Z"/><path class="cls-7" d="M692.9,323.4c-16.37-11.34-39.24-17.09-68-17.09-11.84,0-36.48,0-58.72,6.22-21.41,6-32.89,15.74-38.72,26-17.39-9.23-35.6-3.86-44.25-.23-5.87-10.18-17.34-19.84-38.58-25.78-22.24-6.22-46.88-6.22-58.72-6.22-28.74,0-51.6,5.75-68,17.09-18.71,13-28.2,32.61-28.2,58.4,0,28,7.71,53.44,21.7,71.76,14.14,18.5,33.74,28.69,55.2,28.69,25.83,0,56.37-15.13,81.68-40.49s40.44-56,40.44-81.93a45.06,45.06,0,0,0-1.47-11.61c7-2.91,22.39-7.53,36.14.31a45.63,45.63,0,0,0-1.39,11.3c0,25.93,15.12,56.56,40.44,81.93s55.85,40.49,81.69,40.49c21.46,0,41.06-10.19,55.2-28.69,14-18.32,21.69-43.8,21.69-71.76C721.09,356,711.61,336.36,692.9,323.4ZM440.78,434.2c-23.35,23.39-51.06,37.36-74.11,37.36-18.05,0-34.64-8.7-46.7-24.5-12.58-16.46-19.5-39.63-19.5-65.26,0-53.55,46.47-64.8,85.47-64.8,62,0,92.16,14,92.16,42.83C478.1,383,464.15,410.8,440.78,434.2ZM690.9,447.06c-12.07,15.8-28.65,24.5-46.7,24.5-23.06,0-50.77-14-74.12-37.36S532.77,383,532.77,359.83c0-28.82,30.14-42.83,92.16-42.83,39,0,85.47,11.25,85.47,64.8C710.4,407.43,703.47,430.6,690.9,447.06Z"/><path class="cls-4" d="M561.73,542.86a8.53,8.53,0,0,0-10.6,5.71c-2.64,8.82-19.72,21.59-43.66,21.59s-41-12.77-43.66-21.59a8.51,8.51,0,1,0-16.3,4.89c5.68,18.91,32,33.72,60,33.72s54.29-14.81,60-33.72A8.52,8.52,0,0,0,561.73,542.86Z"/></svg>