<svg id="Layer_1" data-name="Layer 1" xmlns="http://www.w3.org/2000/svg" viewBox="0 0 1555.5 877.26"><defs><style>.cls-1,.cls-2{fill:#eeedee;}.cls-2{stroke:#ee2e7b;stroke-miterlimit:10;stroke-width:7px;}</style></defs><title>Patter.Javi</title><path class="cls-1" d="M45.16,252.83H-126.36V197.55H45.16Zm-169.06-2.47H42.69V200H-123.9Z" transform="translate(195.21 85.1)"/><path class="cls-1" d="M-93.26,232.59h-15.27V217.32h15.27Zm-12.8-2.46h10.33V219.79h-10.33Z" transform="translate(195.21 85.1)"/><path class="cls-1" d="M-63.09,232.59H-78.35V217.32h15.26Zm-12.8-2.46h10.34V219.79H-75.89Z" transform="translate(195.21 85.1)"/><path class="cls-1" d="M-33,232.59H-48.24V217.32H-33Zm-12.8-2.46h10.34V219.79H-45.77Z" transform="translate(195.21 85.1)"/><path class="cls-1" d="M-2.5,232.59H-17.77V217.32H-2.5Zm-12.81-2.46H-5V219.79H-15.31Z" transform="translate(195.21 85.1)"/><path class="cls-1" d="M27.67,232.59H12.4V217.32H27.67Zm-12.8-2.46H25.2V219.79H14.87Z" transform="translate(195.21 85.1)"/><rect class="cls-1" x="97.32" y="213.13" width="2.47" height="70.75"/><path class="cls-1" d="M-96.66,128.56a12,12,0,0,1-12-12,12,12,0,0,1,12-12,12,12,0,0,1,12,12A12,12,0,0,1-96.66,128.56Zm0-21.49a9.53,9.53,0,0,0-9.51,9.51,9.53,9.53,0,0,0,9.51,9.51,9.52,9.52,0,0,0,9.51-9.51A9.52,9.52,0,0,0-96.66,107.07Z" transform="translate(195.21 85.1)"/><path class="cls-1" d="M-127.52,162.12a9.7,9.7,0,0,1-9.69-9.69,9.7,9.7,0,0,1,9.69-9.69,9.7,9.7,0,0,1,9.69,9.69A9.7,9.7,0,0,1-127.52,162.12Zm0-16.91a7.24,7.24,0,0,0-7.23,7.22,7.24,7.24,0,0,0,7.23,7.23,7.23,7.23,0,0,0,7.22-7.23A7.23,7.23,0,0,0-127.52,145.21Z" transform="translate(195.21 85.1)"/><path class="cls-1" d="M5.88,173.81a18.26,18.26,0,1,1,18.26-18.26A18.28,18.28,0,0,1,5.88,173.81Zm0-34.05a15.79,15.79,0,1,0,15.79,15.79A15.8,15.8,0,0,0,5.88,139.76Z" transform="translate(195.21 85.1)"/><path class="cls-1" d="M142.91,259.22H119.12l-7.59-20.81-11.82-4.94L79.88,243.83,62.33,226.28,72.44,206l-4-11.63-22.18-8.19v-23.3l21.35-7.5,5.26-12.15L62.13,124l17.12-17.13,20.52,10.25,12.61-5.69,7-21.46h23.71l6.6,21.43,12.59,5,20.19-9.91L199.92,124,189.2,143.2l5.27,12.16,21.34,7.86v23.29L194,194.35,189.61,206l10.11,20-17.56,17.18-19.8-10-11.5,5.27Zm-22.06-2.47h20.36l7.71-20.18,13.49-6.18,19.29,9.72,15-14.68-9.78-19.3,5.14-13.71,21.28-7.65V164.94l-20.72-7.63-6.17-14.25,10.4-18.64-14.91-14.91-19.59,9.62-14.7-5.88-6.41-20.81h-20.1l-6.75,20.79-14.68,6.62-20-10L65.19,124.42l10.4,18.64-6.18,14.26L48.7,164.6v19.83l21.65,8,4.76,13.71-9.78,19.65,15,15,19.24-10.05,13.89,5.8Z" transform="translate(195.21 85.1)"/><path class="cls-1" d="M10.92,188.45H.83l-2.95-8.09L-6,178.75l-7.71,4-7.45-7.45,3.94-7.92-1.31-3.77-8.58-3.17v-9.92l8.31-2.92,1.71-4-4.17-7.46,7.31-7.31,8,4L-1.82,131,.9,122.66H11L13.59,131l4.12,1.65,7.85-3.85L33,136.21l-4.17,7.46,1.72,4,8.3,3.06v9.91l-8.46,3L29,167.42l3.94,7.78-7.46,7.3-7.67-3.88L14,180.34ZM2.55,186H9.22l2.86-7.46,5.74-2.63L25,179.5l4.9-4.8-3.61-7.13,2.2-5.85,7.9-2.84v-6.46l-7.67-2.83-2.62-6.05,3.85-6.91-4.87-4.86-7.25,3.56-6.24-2.49L9.2,125.12H2.69l-2.5,7.69L-6,135.61l-7.42-3.7-4.72,4.72,3.85,6.91-2.63,6.06-7.67,2.7v6.45l8.06,3,2,5.85-3.61,7.26,4.92,4.91L-6.09,176l5.91,2.47Z" transform="translate(195.21 85.1)"/><path class="cls-1" d="M-123.73,175.89h-7.59l-2.11-5.77-2.39-1-5.5,2.87-5.6-5.61,2.81-5.65-.81-2.34-6.1-2.25v-7.48l5.92-2.08,1.07-2.46-3-5.33,5.51-5.51,5.66,2.84,2.61-1.18,1.93-6h7.65l1.83,5.93,2.57,1,5.6-2.75,5.6,5.6-3,5.33,1.07,2.47,5.92,2.18v7.47l-6,2.17-.87,2.33,2.81,5.55-5.61,5.5-5.47-2.76-2.33,1.07Zm-5.87-2.47h4.17l2-5.14,4.32-2,5,2.49,3.06-3-2.48-4.91,1.65-4.42,5.47-2v-4l-5.29-2-2-4.56,2.66-4.76-3-3-5,2.45-4.7-1.87-1.64-5.33h-4l-1.72,5.3-4.66,2.11-5.13-2.56-2.93,2.93,2.66,4.76-2,4.57-5.29,1.86v4l5.58,2.06,1.53,4.42-2.48,5,3.07,3.08,4.91-2.57,4.46,1.86Z" transform="translate(195.21 85.1)"/><path class="cls-1" d="M11.33,87.8A17.1,17.1,0,1,1,28.42,70.71,17.11,17.11,0,0,1,11.33,87.8Zm0-31.72A14.63,14.63,0,1,0,26,70.71,14.65,14.65,0,0,0,11.33,56.08Z" transform="translate(195.21 85.1)"/><path class="cls-1" d="M17.7,113.6H5L1.1,103.05l-5.38-2.25-10.06,5.25-9.4-9.4,5.14-10.31-1.84-5.29-11.21-4.14V64.4l10.82-3.8,2.41-5.55-5.44-9.73,9.21-9.2,10.38,5.19,5.78-2.62L5.05,27.81H17.8l3.35,10.86L26.91,41l10.24-5,9.37,9.38-5.43,9.73,2.4,5.56,10.82,4v12.5l-11.05,4-2,5.29,5.13,10.13L37,105.69l-10-5.06L21.73,103Zm-11-2.46H16l3.79-9.93L27,97.9l9.5,4.79L43.39,96l-4.8-9.48,2.76-7.37,10.49-3.77v-9L41.65,62.56l-3.31-7.64,5.12-9.18-6.81-6.8L27,43.67l-7.87-3.15L16,30.27H6.84L3.52,40.49-4.32,44l-9.85-4.92-6.62,6.62,5.11,9.18L-19,62.57l-10.19,3.58v9l10.69,4,2.56,7.37-4.81,9.65,6.87,6.87,9.47-5,7.45,3.11Z" transform="translate(195.21 85.1)"/><path class="cls-1" d="M-105.25,68a17.11,17.11,0,0,1-17.1-17.09,17.11,17.11,0,0,1,17.1-17.09A17.11,17.11,0,0,1-88.16,50.94,17.11,17.11,0,0,1-105.25,68Zm0-31.72a14.65,14.65,0,0,0-14.63,14.63,14.64,14.64,0,0,0,14.63,14.63A14.64,14.64,0,0,0-90.63,50.94,14.65,14.65,0,0,0-105.25,36.31Z" transform="translate(195.21 85.1)"/><path class="cls-1" d="M-98.89,93.84h-12.74l-3.85-10.55L-120.87,81l-10,5.25-9.4-9.4,5.13-10.32L-137,61.28l-11.21-4.14V44.63l10.83-3.8,2.4-5.54-5.43-9.74,9.2-9.2,10.38,5.19,5.79-2.61L-111.53,8h12.75l3.34,10.86,5.76,2.31,10.24-5,9.37,9.37-5.43,9.74,2.41,5.55,10.82,4V57.33l-11.06,4-2,5.29,5.13,10.12-9.41,9.21-10-5-5.24,2.4Zm-11-2.47h9.32l3.79-9.92,7.24-3.32,9.51,4.8,6.85-6.71L-78,66.73l2.76-7.37,10.5-3.77v-9l-10.2-3.76-3.31-7.64L-73.13,26l-6.81-6.81-9.64,4.73-7.87-3.14-3.16-10.25h-9.13l-3.32,10.22-7.85,3.54-9.84-4.92L-137.38,26l5.12,9.17-3.32,7.65-10.19,3.58v9l10.69,3.95,2.56,7.38-4.8,9.65,6.86,6.86,9.47-5,7.46,3.12Z" transform="translate(195.21 85.1)"/><path class="cls-1" d="M-149.37,281.13a9.7,9.7,0,0,1-9.69-9.69,9.7,9.7,0,0,1,9.69-9.69,9.71,9.71,0,0,1,9.7,9.69A9.71,9.71,0,0,1-149.37,281.13Zm0-16.91a7.23,7.23,0,0,0-7.22,7.22,7.24,7.24,0,0,0,7.22,7.23,7.24,7.24,0,0,0,7.23-7.23A7.23,7.23,0,0,0-149.37,264.22Z" transform="translate(195.21 85.1)"/><path class="cls-1" d="M-145.58,294.89h-7.59l-2.1-5.76-2.4-1-5.49,2.87-5.61-5.61,2.82-5.65-.82-2.34-6.09-2.25v-7.48l5.92-2.08,1.06-2.47-3-5.32,5.51-5.51,5.67,2.83,2.6-1.17,1.94-6h7.64l1.83,5.93,2.58,1,5.6-2.75,5.6,5.6-3,5.32,1.08,2.48,5.91,2.18v7.47l-6,2.16-.88,2.34,2.82,5.55-5.62,5.5L-141,288l-2.33,1.07Zm-5.86-2.46h4.17l2-5.15,4.33-2,4.95,2.5,3.06-3-2.49-4.9,1.66-4.42,5.47-2v-4l-5.3-1.95-2-4.56,2.65-4.76-3-3-5,2.46-4.69-1.88-1.64-5.32h-4l-1.72,5.3-4.67,2.11-5.12-2.57-2.93,2.94,2.65,4.76-2,4.57-5.29,1.86v4l5.58,2.06,1.54,4.42-2.49,5,3.07,3.07,4.92-2.57,4.45,1.87Z" transform="translate(195.21 85.1)"/><path class="cls-1" d="M-149.28,631.91a9.7,9.7,0,0,1-9.69-9.69,9.7,9.7,0,0,1,9.69-9.69,9.69,9.69,0,0,1,9.69,9.69A9.7,9.7,0,0,1-149.28,631.91Zm0-16.92a7.23,7.23,0,0,0-7.22,7.23,7.23,7.23,0,0,0,7.22,7.22,7.23,7.23,0,0,0,7.23-7.22A7.23,7.23,0,0,0-149.28,615Z" transform="translate(195.21 85.1)"/><path class="cls-1" d="M-145.49,645.67h-7.59l-2.11-5.77-2.39-1-5.5,2.87-5.6-5.61,2.81-5.65-.81-2.34-6.1-2.25v-7.48l5.92-2.08,1.07-2.47-3-5.32,5.51-5.51,5.66,2.83,2.61-1.17,1.93-6h7.65l1.83,5.94,2.58,1,5.59-2.75,5.6,5.6-3,5.32,1.07,2.48,5.92,2.17V626l-6,2.16-.88,2.34,2.81,5.55-5.61,5.49-5.47-2.75-2.33,1.07Zm-5.87-2.46h4.17l2-5.15,4.33-2,4.94,2.5,3.07-3-2.49-4.9,1.66-4.42,5.46-2v-4l-5.29-1.95-2-4.56,2.66-4.76-3-3-5,2.46-4.69-1.88-1.64-5.32h-4l-1.72,5.3-4.67,2.1-5.12-2.56L-165.7,609l2.66,4.76-2,4.57-5.29,1.86v4l5.58,2.06,1.53,4.42-2.48,5,3.07,3.07,4.91-2.57,4.46,1.86Z" transform="translate(195.21 85.1)"/><path class="cls-1" d="M131,227.61a53,53,0,1,1,53-53A53.08,53.08,0,0,1,131,227.61ZM131,124a50.56,50.56,0,1,0,50.55,50.55A50.61,50.61,0,0,0,131,124Z" transform="translate(195.21 85.1)"/><path class="cls-1" d="M310.79,674.88H287l-7.59-20.81-11.82-4.93L247.76,659.5,230.22,642l10.1-20.31-4-11.63-22.18-8.2V578.52L235.46,571l5.27-12.14L230,539.66l17.13-17.13,20.51,10.26,12.61-5.69,7-21.46h23.71l6.61,21.43,12.58,5,20.19-9.91,17.48,17.47-10.72,19.21L362.35,571l21.34,7.86v23.29L361.85,610l-4.36,11.63,10.11,20L350,658.78l-19.8-10-11.49,5.27Zm-22.06-2.46h20.36l7.71-20.19,13.5-6.18,19.28,9.73,15-14.68-9.78-19.3,5.14-13.72,21.29-7.64V580.6L360.5,573l-6.17-14.25,10.4-18.64-14.91-14.91-19.59,9.62-14.69-5.88-6.42-20.81H289l-6.75,20.79-14.67,6.62-20-10-14.55,14.55,10.4,18.64L237.3,573l-20.72,7.28v19.82l21.66,8L243,621.81l-9.78,19.65,15,15,19.25-10.06,13.88,5.8Z" transform="translate(195.21 85.1)"/><path class="cls-1" d="M298.9,643.28a53,53,0,1,1,53-53A53.08,53.08,0,0,1,298.9,643.28Zm0-103.57a50.55,50.55,0,1,0,50.56,50.55A50.61,50.61,0,0,0,298.9,539.71Z" transform="translate(195.21 85.1)"/><path class="cls-1" d="M688.34,329.55H664.56L657,308.74l-11.81-4.93-19.83,10.36-17.55-17.55,10.11-20.31-4-11.64-22.17-8.19V233.19L613,225.68l5.26-12.14-10.72-19.21,17.13-17.13,20.51,10.26,12.61-5.7,7-21.45h23.7l6.61,21.43,12.59,5,20.18-9.92,17.48,17.48-10.72,19.21,5.27,12.15,21.35,7.86v23.29l-21.85,7.85L735,276.32l10.11,19.95L727.6,313.45l-19.8-10-11.5,5.26Zm-22.06-2.46h20.37l7.71-20.19,13.49-6.18,19.28,9.73,15-14.68-9.78-19.3,5.15-13.72,21.28-7.64V235.27l-20.72-7.63-6.18-14.24,10.41-18.64-14.91-14.91-19.59,9.62-14.7-5.88-6.42-20.82H666.58l-6.76,20.79-14.67,6.63-20-10-14.56,14.56L621,213.4l-6.18,14.25-20.72,7.28v19.83l21.66,8,4.76,13.72-9.78,19.65,15,15L645,301.08l13.88,5.8Z" transform="translate(195.21 85.1)"/><path class="cls-1" d="M676.46,298a53,53,0,1,1,53-53A53.07,53.07,0,0,1,676.46,298Zm0-103.57A50.55,50.55,0,1,0,727,244.93,50.61,50.61,0,0,0,676.46,194.38Z" transform="translate(195.21 85.1)"/><path class="cls-2" d="M-68.62,85.13" transform="translate(195.21 85.1)"/><path class="cls-2" d="M-57.5,73.12" transform="translate(195.21 85.1)"/><path class="cls-1" d="M-55.56,159.89l-1.73-1.77a57.71,57.71,0,0,0,17.45-41.54A58.42,58.42,0,0,0-58.34,74l1.68-1.8a60.88,60.88,0,0,1,19.29,44.36A60.23,60.23,0,0,1-55.56,159.89Z" transform="translate(195.21 85.1)"/><path class="cls-2" d="M-56.42,159" transform="translate(195.21 85.1)"/><path class="cls-2" d="M-68.2,147.61" transform="translate(195.21 85.1)"/><path class="cls-1" d="M-67.33,148.48l-1.75-1.73a42.65,42.65,0,0,0,12.41-30.17A42.54,42.54,0,0,0-69.49,86l1.73-1.76A45,45,0,0,1-54.2,116.58,45,45,0,0,1-67.33,148.48Z" transform="translate(195.21 85.1)"/><path class="cls-2" d="M-68.2,147.61" transform="translate(195.21 85.1)"/><path class="cls-2" d="M-80.09,136.13" transform="translate(195.21 85.1)"/><path class="cls-1" d="M-79.22,137-81,135.25a26.18,26.18,0,0,0,7.76-18.67,26.22,26.22,0,0,0-7.54-18.45L-79,96.4a28.67,28.67,0,0,1,8.25,20.18A28.64,28.64,0,0,1-79.22,137Z" transform="translate(195.21 85.1)"/><path class="cls-2" d="M-79.86,97.27" transform="translate(195.21 85.1)"/><path class="cls-2" d="M-68.62,85.13" transform="translate(195.21 85.1)"/><path class="cls-1" d="M-33.14,412.05H-194V302.82h80.63l19.21-21.48h61Zm-158.37-2.47h155.9V283.8H-93l-19.2,21.49h-79.28Z" transform="translate(195.21 85.1)"/><path class="cls-1" d="M1360.29,412.05H1199.45V302.82h80.64l19.2-21.48h61Zm-158.37-2.47h155.9V283.8H1300.4l-19.21,21.49h-79.27Z" transform="translate(195.21 85.1)"/><rect class="cls-1" x="177.07" y="391" width="212.26" height="2.47"/><rect class="cls-1" x="186" y="377.63" width="12.35" height="2.47"/><rect class="cls-1" x="206.19" y="377.63" width="12.35" height="2.47"/><rect class="cls-1" x="226.23" y="377.63" width="12.35" height="2.47"/><rect class="cls-1" x="194.91" y="417.57" width="53.95" height="2.47"/><rect class="cls-1" x="194.91" y="440.58" width="101.65" height="2.47"/><rect class="cls-1" x="194.91" y="462.53" width="100.59" height="2.47"/><rect class="cls-1" x="194.91" y="485.08" width="112.93" height="2.47"/><rect class="cls-1" x="194.91" y="507.49" width="88.3" height="2.47"/><path class="cls-1" d="M140.1,400.67a30.5,30.5,0,1,1,30.5-30.5A30.53,30.53,0,0,1,140.1,400.67Zm0-58.52a28,28,0,1,0,28,28A28.05,28.05,0,0,0,140.1,342.15Z" transform="translate(195.21 85.1)"/><path class="cls-1" d="M140.1,412.2a42,42,0,1,1,42-42A42.08,42.08,0,0,1,140.1,412.2Zm0-81.59a39.57,39.57,0,1,0,39.57,39.56A39.61,39.61,0,0,0,140.1,330.61Z" transform="translate(195.21 85.1)"/><rect class="cls-1" x="175.91" y="395.62" width="2.47" height="23.16" transform="translate(-39.7 326.78) rotate(-44.61)"/><path class="cls-1" d="M195.36,450.34H-19.37V279.16H195.36V414.05l-3.21-3.2-11.73,11.72,14.94,14.93Zm-212.27-2.46h209.8v-9.35l-15.95-16,15.21-15.21.74.74V281.63H-16.91Z" transform="translate(195.21 85.1)"/><path class="cls-2" d="M194.12,438" transform="translate(195.21 85.1)"/><path class="cls-2" d="M194.12,411.07" transform="translate(195.21 85.1)"/><path class="cls-1" d="M219.56,465.2l-42.62-42.63,15.21-15.21L234.78,450Zm-39.14-42.63,39.14,39.14L231.29,450l-39.14-39.13Z" transform="translate(195.21 85.1)"/><path class="cls-1" d="M202.45,596.92h-90.3V528.77h5.34v-8.51h-5.34v-37l20.54-20.22h69.76v46.21h-5.53v14.9h5.53Zm-87.83-2.47H200V526.66h-5.54V506.82H200V465.55H133.7l-19.08,18.79v33.45H120v13.44h-5.33Z" transform="translate(195.21 85.1)"/><polygon class="cls-1" points="392.13 593.15 389.67 593.15 389.67 583.08 396.43 583.08 396.43 585.55 392.13 585.55 392.13 593.15"/><rect class="cls-1" x="335.1" y="549.41" width="2.47" height="20.27"/><rect class="cls-1" x="313.69" y="571.25" width="2.47" height="20.27"/><rect class="cls-1" x="344.71" y="549.41" width="2.47" height="20.27"/><rect class="cls-1" x="354.38" y="549.41" width="2.47" height="20.27"/><rect class="cls-1" x="363.99" y="549.41" width="2.47" height="20.27"/><rect class="cls-1" x="373.89" y="549.41" width="2.47" height="20.27"/><rect class="cls-1" x="383.49" y="549.41" width="2.47" height="20.27"/><rect class="cls-1" x="323.05" y="655.96" width="59.21" height="2.47"/><polygon class="cls-1" points="291.96 679.25 123.84 679.25 123.84 524.62 126.31 524.62 126.31 676.78 291.96 676.78 291.96 679.25"/><polygon class="cls-1" points="109.49 545.57 107.5 544.11 125.1 520.08 141.74 544.14 139.71 545.54 125.05 524.34 109.49 545.57"/><polygon class="cls-1" points="272.37 694.58 270.97 692.55 292.17 677.88 270.94 662.33 272.4 660.34 296.43 677.94 272.37 694.58"/><path class="cls-1" d="M-33.72,594.15H-57.9V533.26h24.18Zm-21.72-2.47h19.25V535.73H-55.44Z" transform="translate(195.21 85.1)"/><path class="cls-1" d="M.24,594.15H-23.95V506.74H.24Zm-21.72-2.47H-2.23V509.21H-21.48Z" transform="translate(195.21 85.1)"/><path class="cls-1" d="M33.9,594.15H9.71V515.89H33.9Zm-21.72-2.47H31.43V518.35H12.18Z" transform="translate(195.21 85.1)"/><path class="cls-1" d="M67.58,594.15H43.4V474.74H67.58Zm-21.71-2.47H65.12V477.21H45.87Z" transform="translate(195.21 85.1)"/><polygon class="cls-1" points="157.01 578.81 142.41 564.46 156.99 549.69 158.75 551.42 145.9 564.43 158.74 577.05 157.01 578.81"/><polygon class="cls-1" points="199.81 578.81 198.08 577.05 210.91 564.43 198.07 551.42 199.82 549.69 214.41 564.46 199.81 578.81"/><rect class="cls-1" x="-42.04" y="478.17" width="50.46" height="2.47" transform="translate(-261.39 372.97) rotate(-68.47)"/><polygon class="cls-1" points="453.42 446.1 438.82 431.75 453.41 416.98 455.16 418.71 442.31 431.72 455.15 444.35 453.42 446.1"/><polygon class="cls-1" points="496.22 446.1 494.49 444.35 507.33 431.72 494.48 418.71 496.24 416.98 510.82 431.75 496.22 446.1"/><rect class="cls-1" x="254.38" y="345.46" width="50.46" height="2.47" transform="matrix(0.37, -0.93, 0.93, 0.37, 49.72, 564.69)"/><polygon class="cls-1" points="602.53 622.45 587.93 608.09 602.51 593.33 604.27 595.06 591.42 608.07 604.26 620.69 602.53 622.45"/><polygon class="cls-1" points="645.33 622.45 643.6 620.69 656.44 608.07 643.59 595.06 645.34 593.33 659.93 608.09 645.33 622.45"/><rect class="cls-1" x="403.48" y="521.8" width="50.46" height="2.47" transform="translate(-19.93 815.04) rotate(-68.47)"/><polygon class="cls-1" points="602.13 271 587.54 256.64 602.12 241.88 603.88 243.61 591.03 256.62 603.87 269.24 602.13 271"/><polygon class="cls-1" points="644.94 271 643.21 269.24 656.04 256.62 643.2 243.61 644.95 241.88 659.54 256.64 644.94 271"/><rect class="cls-1" x="403.09" y="170.36" width="50.46" height="2.47" transform="matrix(0.37, -0.93, 0.93, 0.37, 306.76, 592.18)"/><path class="cls-1" d="M-96.8,725.25A24.28,24.28,0,0,1-121,701V628.74h48.49V701A24.27,24.27,0,0,1-96.8,725.25Zm-21.78-94V701A21.8,21.8,0,0,0-96.8,722.78,21.8,21.8,0,0,0-75,701V631.21Z" transform="translate(195.21 85.1)"/><path class="cls-1" d="M-84.67,631.21h-24.26V603h24.26Zm-21.8-2.47h19.33V605.45h-19.33Z" transform="translate(195.21 85.1)"/><rect class="cls-1" x="92.61" y="694.35" width="2.47" height="8.69"/><rect class="cls-1" x="101.75" y="694.35" width="2.47" height="8.69"/><path class="cls-1" d="M915,253.17a86.79,86.79,0,1,1,61.37-25.42A86.23,86.23,0,0,1,915,253.17Zm0-171.12a84.33,84.33,0,1,0,84.32,84.33A84.42,84.42,0,0,0,915,82.05Z" transform="translate(195.21 85.1)"/><rect class="cls-1" x="1109.01" y="165.92" width="2.47" height="171.11"/><rect class="cls-1" x="1024.69" y="250.24" width="171.11" height="2.47"/><path class="cls-1" d="M915,129a134.76,134.76,0,0,1-46.77-8.76,110.46,110.46,0,0,1-18.61-8.8l1.32-2.09c.27.17,27.6,17.19,64.06,17.19Z" transform="translate(195.21 85.1)"/><path class="cls-1" d="M915,129v-2.46c36.46,0,63.8-17,64.07-17.19l1.32,2.09a111,111,0,0,1-18.61,8.8A134.82,134.82,0,0,1,915,129Z" transform="translate(195.21 85.1)"/><path class="cls-1" d="M851,223.73l-1.32-2.09a110.46,110.46,0,0,1,18.61-8.8A134.73,134.73,0,0,1,915,204.07v2.47C878.57,206.54,851.24,223.55,851,223.73Z" transform="translate(195.21 85.1)"/><path class="cls-1" d="M979.1,223.73c-.27-.18-27.61-17.19-64.07-17.19v-2.47a134.79,134.79,0,0,1,46.78,8.77,111,111,0,0,1,18.61,8.8Z" transform="translate(195.21 85.1)"/><path class="cls-1" d="M914.5,253c-9.45-3-17.59-9.53-24.19-19.3-5.23-7.74-9.52-17.54-12.74-29.14a178.81,178.81,0,0,1-6-38.18l2.47-.06A175.12,175.12,0,0,0,880,204c4.92,17.71,15,40.19,35.3,46.7Z" transform="translate(195.21 85.1)"/><path class="cls-1" d="M915.26,253l-.76-2.35c20.27-6.52,30.39-29,35.31-46.75a175.14,175.14,0,0,0,5.89-37.58l2.47.06a178.81,178.81,0,0,1-6,38.18c-3.22,11.6-7.51,21.4-12.74,29.14C932.85,243.5,924.71,250,915.26,253Z" transform="translate(195.21 85.1)"/><path class="cls-1" d="M874.06,166.41l-2.47-.06a178.73,178.73,0,0,1,6-38.18c3.22-11.6,7.51-21.4,12.74-29.14,6.6-9.77,14.74-16.27,24.19-19.31l.76,2.35C895,88.6,884.87,111.1,880,128.83A175.14,175.14,0,0,0,874.06,166.41Z" transform="translate(195.21 85.1)"/><path class="cls-1" d="M955.7,166.41a175.77,175.77,0,0,0-5.9-37.63c-4.93-17.71-15-40.19-35.3-46.71l.76-2.35c9.45,3,17.59,9.54,24.19,19.31,5.23,7.74,9.52,17.54,12.74,29.14a178.73,178.73,0,0,1,6,38.18Z" transform="translate(195.21 85.1)"/><path class="cls-1" d="M485.47,317H212.1V201H485.47Zm-270.9-2.47H483v-111H214.57Z" transform="translate(195.21 85.1)"/><path class="cls-1" d="M249.08,237.62H227.87V216.41h21.21Zm-18.75-2.46h16.28V218.88H230.33Z" transform="translate(195.21 85.1)"/><path class="cls-1" d="M285.77,237.62H264.56V216.41h21.21ZM267,235.16H283.3V218.88H267Z" transform="translate(195.21 85.1)"/><path class="cls-1" d="M322.58,237.62H301.36V216.41h21.22Zm-18.75-2.46h16.28V218.88H303.83Z" transform="translate(195.21 85.1)"/><path class="cls-1" d="M359.27,237.62H338.06V216.41h21.21Zm-18.75-2.46H356.8V218.88H340.52Z" transform="translate(195.21 85.1)"/><path class="cls-1" d="M396.43,237.62H375.21V216.41h21.22Zm-18.75-2.46H394V218.88H377.68Z" transform="translate(195.21 85.1)"/><path class="cls-1" d="M433.12,237.62H411.91V216.41h21.21Zm-18.75-2.46h16.28V218.88H414.37Z" transform="translate(195.21 85.1)"/><path class="cls-1" d="M285.77,269.57H264.56V248.36h21.21ZM267,267.1H283.3V250.83H267Z" transform="translate(195.21 85.1)"/><path class="cls-1" d="M322.58,269.57H301.36V248.36h21.22Zm-18.75-2.47h16.28V250.83H303.83Z" transform="translate(195.21 85.1)"/><path class="cls-1" d="M359.27,269.57H338.06V248.36h21.21Zm-18.75-2.47H356.8V250.83H340.52Z" transform="translate(195.21 85.1)"/><path class="cls-1" d="M396.43,269.57H375.21V248.36h21.22Zm-18.75-2.47H394V250.83H377.68Z" transform="translate(195.21 85.1)"/><path class="cls-1" d="M433.12,269.57H411.91V248.36h21.21Zm-18.75-2.47h16.28V250.83H414.37Z" transform="translate(195.21 85.1)"/><path class="cls-1" d="M285.77,301.52H264.56V280.31h21.21ZM267,299.05H283.3V282.77H267Z" transform="translate(195.21 85.1)"/><path class="cls-1" d="M249.08,269.57H227.87V248.36h21.21Zm-18.75-2.47h16.28V250.83H230.33Z" transform="translate(195.21 85.1)"/><path class="cls-1" d="M249.08,301.52H227.87V280.31h21.21Zm-18.75-2.47h16.28V282.77H230.33Z" transform="translate(195.21 85.1)"/><path class="cls-1" d="M359.27,301.52H301.36V280.31h57.91Zm-55.44-2.47h53V282.77h-53Z" transform="translate(195.21 85.1)"/><path class="cls-1" d="M396.43,301.52H375.21V280.31h21.22Zm-18.75-2.47H394V282.77H377.68Z" transform="translate(195.21 85.1)"/><path class="cls-1" d="M433.12,301.52H411.91V280.31h21.21Zm-18.75-2.47h16.28V282.77H414.37Z" transform="translate(195.21 85.1)"/><path class="cls-1" d="M469.8,301.52H448.59V280.31H469.8Zm-18.74-2.47h16.27V282.77H451.06Z" transform="translate(195.21 85.1)"/><path class="cls-1" d="M469.8,260.2H448.59V216.41H469.8Zm-18.74-2.47h16.27V218.88H451.06Z" transform="translate(195.21 85.1)"/><path class="cls-1" d="M351.53,202.21h-2.46v-5c.22-2.36,1.94-6.83,6.87-6.83h20.65c.93,0,3.63-2.07,3.63-5.28s-2.45-5.13-3.48-5.13H322.57a8.07,8.07,0,0,1-5.25-1.88,7.43,7.43,0,0,1,0-11.21,8.23,8.23,0,0,1,5.31-1.88H343.5a6.41,6.41,0,0,0,4-1.33,3.64,3.64,0,0,0,1.58-2.92v-8.08h2.46v8.08a6.09,6.09,0,0,1-2.5,4.85,8.88,8.88,0,0,1-5.53,1.87H322.66a5.77,5.77,0,0,0-3.72,1.3,4.94,4.94,0,0,0,0,7.44,5.6,5.6,0,0,0,3.65,1.29h54.17c2.69,0,5.94,3.39,5.94,7.6,0,4.49-3.64,7.75-6.09,7.75H355.94c-3.72,0-4.33,3.88-4.41,4.54Z" transform="translate(195.21 85.1)"/><path class="cls-1" d="M546.75,268.76h-2.47V242.13c.27-2.81,2.31-8.13,8.15-8.13h9.31c1.47,0,5.08-2.12,5.08-6.06s-3.4-6.22-4.9-6.22h-34a9.61,9.61,0,0,1-6.27-2.25,8.82,8.82,0,0,1,0-13.32,9.76,9.76,0,0,1,6.33-2.24h9.2a8.13,8.13,0,0,0,5.07-1.7,4.77,4.77,0,0,0,2-3.8V188.5h2.47v9.91a7.24,7.24,0,0,1-3,5.74,10.65,10.65,0,0,1-6.61,2.23H528a7.33,7.33,0,0,0-4.74,1.66,6,6,0,0,0-2.19,4.77,6,6,0,0,0,2.16,4.79,7.19,7.19,0,0,0,4.67,1.65h34c2.94,0,7.37,3.47,7.37,8.69s-4.55,8.52-7.55,8.52h-9.31c-4.85,0-5.61,5.23-5.68,5.85Z" transform="translate(195.21 85.1)"/><path class="cls-1" d="M230.9,699.72a9.69,9.69,0,1,1,9.69-9.69A9.7,9.7,0,0,1,230.9,699.72Zm0-16.92a7.23,7.23,0,1,0,7.23,7.23A7.23,7.23,0,0,0,230.9,682.8Z" transform="translate(195.21 85.1)"/><path class="cls-1" d="M234.69,713.48H227.1L225,707.71l-2.39-1-5.5,2.88L211.5,704l2.81-5.65L213.5,696l-6.1-2.25v-7.48l5.92-2.08,1.07-2.47-3-5.32,5.51-5.51,5.66,2.83,2.61-1.17,1.93-6h7.65l1.83,5.94,2.58,1,5.59-2.75,5.6,5.6-3,5.32,1.07,2.48,5.92,2.17v7.48l-6,2.16-.88,2.34,2.81,5.55-5.61,5.49-5.47-2.75-2.33,1.07ZM228.82,711H233l2-5.15,4.33-2,4.94,2.5,3.07-3-2.49-4.9,1.66-4.42,5.46-2v-4l-5.29-2-2-4.56,2.66-4.77-3-3-5,2.46-4.69-1.88L233,669h-4l-1.72,5.3-4.67,2.1-5.12-2.56-2.94,2.93,2.66,4.77-2,4.57L209.87,688v4l5.58,2.06L217,698.5l-2.48,5,3.07,3.07,4.91-2.57,4.46,1.86Z" transform="translate(195.21 85.1)"/><path class="cls-1" d="M284.83,714.66a9.69,9.69,0,1,1,9.69-9.69A9.7,9.7,0,0,1,284.83,714.66Zm0-16.92a7.23,7.23,0,1,0,7.22,7.23A7.25,7.25,0,0,0,284.83,697.74Z" transform="translate(195.21 85.1)"/><path class="cls-1" d="M288.62,728.42H281l-2.11-5.76-2.39-1-5.5,2.87-5.6-5.61,2.81-5.65-.81-2.34-6.1-2.25V701.2l5.92-2.08,1.07-2.47-3-5.32,5.51-5.51,5.66,2.83,2.6-1.17,1.94-6h7.65l1.83,5.93,2.57,1,5.6-2.75,5.6,5.6-3,5.32,1.07,2.48,5.92,2.18v7.47l-6,2.16-.87,2.34,2.81,5.55-5.61,5.5-5.47-2.76-2.33,1.07ZM282.75,726h4.17l2-5.15,4.32-2,5,2.5,3.06-3-2.48-4.9,1.65-4.42,5.47-2v-4l-5.29-1.95-2-4.56,2.66-4.76-3-3-5,2.46-4.7-1.88L286.88,684h-4l-1.72,5.3-4.66,2.1-5.13-2.56-2.93,2.94,2.66,4.76-2,4.57L263.8,703v4l5.58,2.06,1.53,4.42-2.48,5,3.07,3.07,4.91-2.57,4.46,1.87Z" transform="translate(195.21 85.1)"/><path class="cls-1" d="M722,673.59a9.69,9.69,0,1,1,9.69-9.69A9.71,9.71,0,0,1,722,673.59Zm0-16.92a7.23,7.23,0,1,0,7.22,7.23A7.23,7.23,0,0,0,722,656.67Z" transform="translate(195.21 85.1)"/><path class="cls-1" d="M725.76,687.35h-7.6l-2.1-5.77-2.39-1-5.5,2.88-5.61-5.61,2.82-5.65-.81-2.34-6.1-2.25v-7.48l5.92-2.08,1.07-2.47-3-5.32,5.51-5.51,5.67,2.83,2.6-1.17,1.94-6h7.64l1.83,5.94,2.58,1,5.6-2.75,5.6,5.6-3,5.32,1.07,2.48,5.92,2.17v7.48l-6,2.16-.87,2.34,2.81,5.55-5.62,5.49-5.46-2.75L728,681.57Zm-5.87-2.46h4.17l2-5.15,4.33-2,4.95,2.5,3.06-3-2.49-4.9,1.66-4.42,5.47-2v-4l-5.29-2-2-4.56,2.66-4.77-3-3-5,2.46-4.69-1.88L724,642.91h-4l-1.72,5.3-4.67,2.1-5.12-2.56-2.93,2.93,2.65,4.77-2,4.57-5.29,1.85v4l5.59,2.06,1.53,4.42-2.49,5,3.07,3.07,4.92-2.57,4.46,1.86Z" transform="translate(195.21 85.1)"/><path class="cls-1" d="M898.12,670.14a9.69,9.69,0,1,1,9.69-9.69A9.7,9.7,0,0,1,898.12,670.14Zm0-16.91a7.23,7.23,0,1,0,7.22,7.22A7.23,7.23,0,0,0,898.12,653.23Z" transform="translate(195.21 85.1)"/><path class="cls-1" d="M901.91,683.91h-7.6l-2.1-5.77-2.39-1-5.5,2.87-5.6-5.61,2.81-5.65-.81-2.34-6.1-2.25v-7.48l5.92-2.08,1.07-2.46-3-5.33,5.5-5.51,5.67,2.83,2.6-1.17,1.94-6H902l1.83,5.93,2.58,1,5.6-2.75,5.6,5.6-3,5.33,1.07,2.47,5.92,2.18v7.47l-6,2.17-.87,2.33,2.81,5.55-5.61,5.5-5.47-2.76-2.33,1.07ZM896,681.44h4.17l2-5.14,4.33-2,5,2.5,3.06-3L912,668.91l1.65-4.42,5.47-2v-4l-5.29-2-2-4.56,2.66-4.76-3-3-5,2.45-4.69-1.87-1.64-5.33h-4l-1.72,5.3-4.66,2.11-5.13-2.57-2.93,2.94,2.66,4.76-2,4.57-5.28,1.86v4l5.58,2.06,1.53,4.42-2.49,5,3.07,3.07,4.92-2.56,4.46,1.86Z" transform="translate(195.21 85.1)"/><path class="cls-1" d="M981.12,570.75a9.69,9.69,0,1,1,9.69-9.69A9.7,9.7,0,0,1,981.12,570.75Zm0-16.91a7.23,7.23,0,1,0,7.22,7.22A7.23,7.23,0,0,0,981.12,553.84Z" transform="translate(195.21 85.1)"/><path class="cls-1" d="M984.91,584.52h-7.6l-2.1-5.77-2.39-1-5.5,2.87L961.71,575l2.82-5.65-.81-2.34-6.1-2.25v-7.48l5.92-2.08,1.07-2.46-3-5.33,5.51-5.51,5.67,2.83,2.6-1.17,1.94-6H985l1.83,5.93,2.58,1,5.6-2.75,5.6,5.6-3,5.33,1.07,2.47,5.92,2.18v7.47l-6,2.17-.87,2.33,2.81,5.55-5.62,5.5-5.46-2.76-2.33,1.07ZM979,582.05h4.17l2-5.14,4.33-2,5,2.5,3.06-3L995,569.52l1.66-4.42,5.47-2v-4l-5.29-2-2-4.56,2.66-4.76-3-3-5,2.45-4.69-1.87-1.64-5.33h-4l-1.72,5.3-4.67,2.11-5.12-2.57-2.93,2.94,2.65,4.76-2,4.57L960.09,559v4l5.58,2.06,1.53,4.42-2.49,5,3.07,3.07L972.7,575l4.46,1.86Z" transform="translate(195.21 85.1)"/><path class="cls-1" d="M1260.71,631.81a9.69,9.69,0,1,1,9.69-9.69A9.7,9.7,0,0,1,1260.71,631.81Zm0-16.92a7.23,7.23,0,1,0,7.23,7.23A7.24,7.24,0,0,0,1260.71,614.89Z" transform="translate(195.21 85.1)"/><path class="cls-1" d="M1264.5,645.57h-7.59l-2.11-5.76-2.39-1-5.5,2.87-5.6-5.61,2.81-5.65-.81-2.34-6.1-2.25v-7.48l5.92-2.08,1.07-2.47-3-5.32,5.51-5.51,5.66,2.83,2.61-1.17,1.93-6h7.65l1.83,5.93,2.58,1,5.6-2.75,5.59,5.6-3,5.32,1.07,2.48,5.92,2.18v7.47l-6,2.16-.88,2.34,2.81,5.55-5.61,5.5-5.47-2.76-2.33,1.07Zm-5.87-2.46h4.17l2-5.15,4.33-2,5,2.5,3.06-3-2.49-4.9,1.66-4.42,5.46-2v-4l-5.29-1.95-2-4.56,2.66-4.76-3-3-5,2.46-4.69-1.88-1.64-5.32h-4l-1.72,5.3-4.67,2.1-5.12-2.56-2.94,2.94,2.66,4.76-2,4.57-5.29,1.86v4l5.58,2.06,1.53,4.42-2.48,5,3.07,3.07,4.91-2.57,4.46,1.87Z" transform="translate(195.21 85.1)"/><path class="cls-1" d="M1028.31,536.13a9.69,9.69,0,1,1,9.69-9.69A9.69,9.69,0,0,1,1028.31,536.13Zm0-16.91a7.23,7.23,0,1,0,7.22,7.22A7.23,7.23,0,0,0,1028.31,519.22Z" transform="translate(195.21 85.1)"/><path class="cls-1" d="M1152.91,480a12.9,12.9,0,1,1,12.89-12.89A12.92,12.92,0,0,1,1152.91,480Zm0-23.32a10.43,10.43,0,1,0,10.42,10.43A10.44,10.44,0,0,0,1152.91,456.65Z" transform="translate(195.21 85.1)"/><path class="cls-1" d="M1152.91,496a28.9,28.9,0,1,1,28.89-28.89A28.92,28.92,0,0,1,1152.91,496Zm0-55.32a26.43,26.43,0,1,0,26.42,26.43A26.45,26.45,0,0,0,1152.91,440.65Z" transform="translate(195.21 85.1)"/><path class="cls-1" d="M1152.91,521.57a54.5,54.5,0,1,1,54.5-54.49A54.55,54.55,0,0,1,1152.91,521.57Zm0-106.53a52,52,0,1,0,52,52A52.1,52.1,0,0,0,1152.91,415Z" transform="translate(195.21 85.1)"/><path class="cls-1" d="M1032.1,549.9h-7.6l-2.1-5.77-2.39-1-5.5,2.87-5.6-5.6,2.81-5.66-.81-2.33-6.1-2.26v-7.48l5.92-2.08,1.07-2.46-3-5.33,5.51-5.51,5.66,2.84,2.6-1.18,1.94-6h7.64l1.83,5.93,2.58,1,5.6-2.75,5.6,5.59-3,5.33,1.07,2.47,5.92,2.18v7.47l-6,2.17-.87,2.33,2.81,5.56-5.61,5.49-5.47-2.76-2.33,1.07Zm-5.87-2.47h4.17l2-5.14,4.33-2,5,2.49,3.06-3-2.48-4.91,1.65-4.42,5.47-2v-4l-5.29-2-2-4.56,2.66-4.76-3-3-5,2.45-4.69-1.87-1.64-5.32h-4l-1.72,5.29-4.66,2.11-5.13-2.56-2.93,2.93,2.66,4.76-2,4.57-5.29,1.86v4l5.58,2.06,1.53,4.42-2.49,5L1015,543l4.92-2.57,4.46,1.86Z" transform="translate(195.21 85.1)"/><path class="cls-1" d="M1120.48,398.46a9.69,9.69,0,1,1,9.69-9.69A9.7,9.7,0,0,1,1120.48,398.46Zm0-16.92a7.23,7.23,0,1,0,7.23,7.23A7.24,7.24,0,0,0,1120.48,381.54Z" transform="translate(195.21 85.1)"/><path class="cls-1" d="M1124.27,412.22h-7.59l-2.11-5.76-2.39-1-5.5,2.87-5.6-5.61,2.81-5.65-.81-2.34-6.1-2.25V385l5.92-2.08,1.07-2.47-3-5.32,5.51-5.51,5.66,2.83,2.61-1.17,1.93-6h7.65l1.83,5.93,2.58,1,5.59-2.75,5.6,5.6-3,5.32,1.07,2.48,5.92,2.18v7.47l-6,2.16-.88,2.34,2.81,5.55-5.61,5.5-5.47-2.76-2.33,1.07Zm-5.87-2.46h4.17l2-5.15,4.33-2,4.94,2.5,3.07-3-2.49-4.9,1.66-4.42,5.46-2v-4l-5.29-1.95-2-4.56,2.66-4.76-3-3-5,2.46-4.69-1.88-1.64-5.32h-4l-1.72,5.3-4.67,2.1-5.12-2.56-2.94,2.94,2.66,4.76-2,4.57-5.29,1.86v4l5.58,2.06,1.53,4.42-2.48,5,3.07,3.07,4.91-2.57,4.46,1.87Z" transform="translate(195.21 85.1)"/><path class="cls-1" d="M1170.3,396.35a9.7,9.7,0,1,1,9.7-9.7A9.71,9.71,0,0,1,1170.3,396.35Zm0-16.92a7.23,7.23,0,1,0,7.23,7.22A7.23,7.23,0,0,0,1170.3,379.43Z" transform="translate(195.21 85.1)"/><path class="cls-1" d="M1174.09,410.11h-7.59l-2.1-5.77-2.4-1-5.49,2.87-5.61-5.6,2.81-5.66-.81-2.33-6.09-2.26v-7.48l5.92-2.08,1.06-2.46-3-5.32,5.51-5.51,5.67,2.83,2.6-1.18,1.94-6h7.64l1.83,5.94,2.58,1,5.6-2.75,5.6,5.6-3,5.32,1.08,2.47,5.91,2.18v7.48l-6,2.16-.88,2.33,2.82,5.56L1184.1,406l-5.46-2.75-2.34,1.06Zm-5.86-2.47h4.17l2-5.14,4.33-2,5,2.49,3.06-3-2.49-4.91,1.66-4.42,5.47-2v-4l-5.3-1.95-2-4.56,2.65-4.76-3-3-5,2.46L1174,371l-1.64-5.32h-4l-1.72,5.29-4.67,2.11-5.12-2.56-2.94,2.93,2.66,4.76-2,4.57-5.29,1.86v4l5.58,2.07,1.54,4.41-2.49,5,3.07,3.07,4.92-2.57,4.45,1.86Z" transform="translate(195.21 85.1)"/><path class="cls-1" d="M1205.82,279.77a9.69,9.69,0,1,1,9.69-9.69A9.7,9.7,0,0,1,1205.82,279.77Zm0-16.92a7.23,7.23,0,1,0,7.22,7.23A7.24,7.24,0,0,0,1205.82,262.85Z" transform="translate(195.21 85.1)"/><path class="cls-1" d="M1209.61,293.53H1202l-2.1-5.77-2.39-1-5.5,2.87-5.6-5.61,2.81-5.65-.81-2.34-6.1-2.25v-7.48l5.92-2.08,1.07-2.47-3-5.32,5.51-5.51,5.66,2.83,2.6-1.17,1.94-6h7.65l1.82,5.94,2.58,1,5.6-2.75,5.6,5.6-3,5.32,1.07,2.48,5.92,2.18v7.47l-6,2.16-.87,2.34,2.81,5.55-5.61,5.5-5.47-2.76-2.33,1.07Zm-5.87-2.46h4.17l2-5.15,4.32-2,5,2.5,3.06-3-2.48-4.9,1.65-4.42,5.47-2v-4l-5.29-1.95-2-4.56,2.66-4.76-3-3-5,2.46-4.7-1.88-1.64-5.32h-4l-1.72,5.3-4.66,2.1-5.13-2.56-2.93,2.94,2.66,4.76-2,4.57-5.29,1.86v4l5.58,2.06,1.53,4.42-2.48,5,3.07,3.07,4.91-2.57,4.46,1.86Z" transform="translate(195.21 85.1)"/><path class="cls-1" d="M1259.69,280.27a9.17,9.17,0,1,1,9.17-9.17A9.18,9.18,0,0,1,1259.69,280.27Zm0-15.87a6.7,6.7,0,1,0,6.7,6.7A6.7,6.7,0,0,0,1259.69,264.4Z" transform="translate(195.21 85.1)"/><path class="cls-1" d="M1263.3,293.18h-7.24l-2-5.43-2.18-.91-5.17,2.7-5.34-5.34,2.65-5.32-.74-2.13-5.73-2.12v-7.12l5.57-2,1-2.25-2.79-5,5.24-5.25,5.33,2.67,2.38-1.08,1.83-5.61h7.28l1.72,5.59,2.36.94,5.27-2.59,5.33,5.33-2.8,5,1,2.26,5.57,2.05v7.12l-5.67,2-.8,2.12,2.65,5.23-5.34,5.23-5.15-2.59-2.12,1Zm-5.51-2.47h3.81l1.83-4.8,4.12-1.89,4.63,2.34,2.79-2.74-2.32-4.58,1.58-4.21,5.11-1.84v-3.66l-4.94-1.82-1.89-4.34,2.49-4.45-2.77-2.77-4.67,2.3-4.47-1.79-1.53-5h-3.67l-1.61,4.94-4.44,2-4.79-2.39-2.67,2.67,2.48,4.45-1.89,4.35-4.94,1.74v3.65l5.22,1.93,1.46,4.21-2.32,4.67,2.8,2.8,4.6-2.4,4.24,1.77Z" transform="translate(195.21 85.1)"/><path class="cls-1" d="M720.63,731.66a9.69,9.69,0,1,1,9.69-9.69A9.7,9.7,0,0,1,720.63,731.66Zm0-16.92a7.23,7.23,0,1,0,7.22,7.23A7.23,7.23,0,0,0,720.63,714.74Z" transform="translate(195.21 85.1)"/><path class="cls-1" d="M724.42,745.42h-7.6l-2.1-5.77-2.39-1-5.5,2.88-5.61-5.61,2.82-5.65-.81-2.34-6.1-2.25V718.2l5.92-2.08,1.07-2.47-3-5.32,5.5-5.51,5.67,2.83,2.6-1.17,1.94-6h7.64l1.83,5.94,2.58,1,5.6-2.75,5.6,5.6-3,5.32,1.07,2.48,5.92,2.17v7.48l-6,2.16-.87,2.34,2.81,5.55-5.62,5.49L729,738.57l-2.33,1.07ZM718.55,743h4.17l2-5.14,4.33-2,5,2.5,3.06-3-2.48-4.9,1.65-4.42,5.47-2v-4l-5.29-1.95-2-4.57,2.66-4.76-3-3-5,2.46-4.69-1.88L722.68,701h-4l-1.72,5.3-4.66,2.1-5.13-2.56-2.93,2.93,2.66,4.76-2,4.58-5.28,1.85v4l5.58,2.06,1.53,4.42-2.49,5,3.07,3.07,4.92-2.57,4.46,1.86Z" transform="translate(195.21 85.1)"/><path class="cls-1" d="M609.07,396.2a9.44,9.44,0,1,1,9.43-9.44A9.44,9.44,0,0,1,609.07,396.2Zm0-16.4a7,7,0,1,0,7,7A7,7,0,0,0,609.07,379.8Z" transform="translate(195.21 85.1)"/><path class="cls-1" d="M612.77,409.54h-7.42l-2-5.6L601,403l-5.34,2.79-5.47-5.47,2.73-5.49-.78-2.24-5.92-2.18v-7.31l5.75-2,1-2.35-2.88-5.17,5.38-5.38,5.5,2.75,2.49-1.13,1.88-5.79h7.46l1.78,5.76,2.47,1,5.43-2.67,5.47,5.47-2.88,5.17,1,2.36,5.75,2.12v7.29L626,392.59l-.84,2.23,2.73,5.39-5.48,5.36-5.3-2.67-2.23,1Zm-5.69-2.47h4l1.9-5,4.23-1.93,4.79,2.42,2.92-2.87-2.4-4.74,1.62-4.32,5.29-1.9v-3.84L624.3,383l-1.93-4.45,2.57-4.61-2.9-2.9-4.84,2.38-4.58-1.83L611,366.46h-3.85l-1.66,5.12L601,373.64l-5-2.48-2.8,2.8,2.57,4.61L593.84,383l-5.12,1.8v3.84l5.4,2,1.5,4.32-2.41,4.83,2.94,2.93,4.76-2.48,4.35,1.82Z" transform="translate(195.21 85.1)"/><path class="cls-1" d="M698.16,394.43a9.43,9.43,0,1,1,9.43-9.43A9.44,9.44,0,0,1,698.16,394.43Zm0-16.39a7,7,0,1,0,7,7A7,7,0,0,0,698.16,378Z" transform="translate(195.21 85.1)"/><path class="cls-1" d="M701.86,407.77h-7.42l-2-5.6-2.29-.95L684.78,404l-5.48-5.48L682,393l-.78-2.23-5.92-2.19v-7.3l5.75-2,1-2.36-2.88-5.17,5.38-5.38,5.5,2.75L692.6,368l1.88-5.79h7.46l1.78,5.76,2.47,1,5.43-2.67,5.47,5.46-2.89,5.17,1,2.37,5.74,2.11v7.3l-5.84,2.1-.84,2.23,2.73,5.4-5.48,5.36-5.31-2.67-2.23,1Zm-5.69-2.46h4l1.9-5,4.23-1.93,4.79,2.41L714,398l-2.4-4.75,1.62-4.31,5.29-1.9v-3.84l-5.12-1.89-1.93-4.45L714,372.2l-2.9-2.9-4.84,2.38-4.58-1.83-1.59-5.15h-3.85l-1.66,5.12-4.56,2.06-5-2.48-2.8,2.8,2.57,4.61-1.93,4.46-5.12,1.8v3.83l5.4,2,1.5,4.31L682.3,398l2.94,2.94L690,398.5l4.35,1.81Z" transform="translate(195.21 85.1)"/><path class="cls-1" d="M763.5,325.79a9.44,9.44,0,1,1,9.44-9.44A9.45,9.45,0,0,1,763.5,325.79Zm0-16.4a7,7,0,1,0,7,7A7,7,0,0,0,763.5,309.39Z" transform="translate(195.21 85.1)"/><path class="cls-1" d="M767.2,339.13h-7.41l-2-5.6-2.29-1-5.34,2.79-5.47-5.47,2.73-5.5-.77-2.23L740.69,320v-7.3l5.75-2,1-2.35-2.89-5.17,5.38-5.38,5.5,2.75,2.49-1.13,1.88-5.79h7.47l1.77,5.76,2.47,1,5.44-2.67,5.46,5.47-2.88,5.17,1,2.36,5.75,2.12v7.29l-5.85,2.1-.84,2.24,2.74,5.39-5.49,5.36-5.3-2.67-2.23,1Zm-5.69-2.47h4l1.9-5,4.23-1.93,4.79,2.42,2.93-2.87-2.41-4.75,1.62-4.31,5.29-1.9V314.5l-5.12-1.89-1.93-4.45,2.57-4.61-2.9-2.9L771.63,303l-4.58-1.83-1.58-5.15h-3.85L760,301.17l-4.55,2.06-5-2.48-2.81,2.8,2.57,4.61-1.93,4.46-5.12,1.8v3.84l5.41,2,1.49,4.32-2.4,4.83,2.94,2.93,4.75-2.48,4.35,1.82Z" transform="translate(195.21 85.1)"/><path class="cls-1" d="M401,475.46A18.47,18.47,0,1,1,419.43,457,18.5,18.5,0,0,1,401,475.46ZM401,441a16,16,0,1,0,16,16A16,16,0,0,0,401,441Z" transform="translate(195.21 85.1)"/><path class="cls-1" d="M406,489.83H395.92L393,481.75l-3.84-1.6-7.69,4L374,476.73l3.93-7.9-1.31-3.76-8.56-3.17V452l8.29-2.91,1.71-3.95-4.16-7.45,7.29-7.3,7.94,4,4.14-1.87,2.71-8.34H406.1l2.56,8.31,4.11,1.64,7.84-3.84,7.42,7.42-4.16,7.45,1.71,4,8.29,3v9.9l-8.46,3-1.4,3.76,3.93,7.76-7.45,7.29L412.83,480l-3.74,1.71Zm-8.35-2.47h6.65l2.85-7.45,5.73-2.62,7.15,3.6,4.89-4.79-3.6-7.11,2.19-5.85,7.89-2.83v-6.44l-7.66-2.82L421.12,445l3.84-6.89-4.85-4.85-7.24,3.55-6.22-2.49-2.38-7.69h-6.49l-2.49,7.67-6.2,2.8-7.4-3.7L377,438.11l3.85,6.89-2.63,6.06-7.65,2.69v6.43l8,3,2,5.84-3.6,7.24,4.9,4.9,7.11-3.71,5.9,2.46Z" transform="translate(195.21 85.1)"/><path class="cls-1" d="M972.66,670.46A18.47,18.47,0,1,1,991.12,652,18.5,18.5,0,0,1,972.66,670.46Zm0-34.46a16,16,0,1,0,16,16A16,16,0,0,0,972.66,636Z" transform="translate(195.21 85.1)"/><path class="cls-1" d="M977.69,684.83H967.61l-2.94-8.08-3.84-1.6-7.69,4-7.44-7.44,3.93-7.9-1.31-3.76-8.56-3.17V647l8.29-2.91,1.71-4-4.16-7.45,7.29-7.3,7.94,4L965,627.5l2.71-8.34h10.11l2.56,8.31,4.11,1.64,7.84-3.84,7.42,7.42-4.16,7.45,1.71,4,8.29,3v9.9l-8.45,3-1.41,3.76,3.93,7.76-7.45,7.29L984.52,675l-3.74,1.71Zm-8.35-2.47H976l2.85-7.45,5.73-2.62,7.15,3.6,4.89-4.79L993,664l2.19-5.85,7.89-2.83v-6.44l-7.66-2.82-2.62-6,3.84-6.89-4.85-4.85-7.24,3.55-6.22-2.49L976,621.63h-6.49L967,629.3l-6.2,2.8-7.4-3.7-4.72,4.71,3.85,6.89-2.63,6.06-7.65,2.69v6.43l8,3,2,5.84-3.6,7.24,4.9,4.9,7.11-3.71,5.9,2.46Z" transform="translate(195.21 85.1)"/><path class="cls-1" d="M1085.32,549a17.23,17.23,0,1,1,17.22-17.22A17.25,17.25,0,0,1,1085.32,549Zm0-32a14.76,14.76,0,1,0,14.75,14.76A14.78,14.78,0,0,0,1085.32,517Z" transform="translate(195.21 85.1)"/><path class="cls-1" d="M1090.05,562.29h-9.48l-2.74-7.51-3.49-1.46-7.16,3.74-7-7,3.66-7.36-1.18-3.41-8-2.95V527l7.71-2.71,1.56-3.59-3.87-6.94,6.85-6.86,7.39,3.7,3.77-1.7,2.52-7.76h9.51l2.39,7.73,3.74,1.5,7.29-3.58,7,7-3.87,6.94,1.56,3.6,7.71,2.84v9.31l-7.87,2.82-1.28,3.42,3.66,7.22-7,6.85-7.13-3.59-3.39,1.55Zm-7.75-2.46h6l2.63-6.89,5.39-2.47,6.62,3.34,4.45-4.36-3.34-6.58,2.06-5.49,7.31-2.63V528.9l-7.09-2.61-2.46-5.69,3.56-6.37-4.42-4.41-6.69,3.29-5.85-2.35-2.2-7.12h-5.9l-2.3,7.1-5.83,2.63-6.85-3.42-4.28,4.28,3.56,6.37-2.47,5.7-7.08,2.49v5.85l7.44,2.75,1.91,5.5-3.33,6.69,4.46,4.46,6.58-3.44,5.55,2.32Z" transform="translate(195.21 85.1)"/><path class="cls-1" d="M799.11,243.36a18.52,18.52,0,1,1,18.52-18.52A18.53,18.53,0,0,1,799.11,243.36Zm0-34.57a16,16,0,1,0,16,16.05A16.07,16.07,0,0,0,799.11,208.79Z" transform="translate(195.21 85.1)"/><path class="cls-1" d="M804.16,257.78H794.05l-2.95-8.1-3.85-1.61-7.72,4-7.46-7.46,3.95-7.92-1.31-3.78-8.59-3.17v-9.93l8.31-2.92,1.72-4L772,205.48l7.31-7.31,8,4,4.15-1.88,2.72-8.36h10.13l2.57,8.34L811,201.9l7.86-3.86,7.44,7.44L822.08,213l1.72,4,8.31,3v9.93l-8.48,3-1.41,3.78,3.94,7.78-7.46,7.31L811,247.94l-3.75,1.72Zm-8.38-2.47h6.68l2.85-7.47,5.75-2.64,7.17,3.62,4.91-4.81-3.61-7.13,2.2-5.86,7.91-2.85V221.7L822,218.88l-2.63-6.07,3.86-6.91L818.32,201l-7.26,3.57-6.25-2.5-2.38-7.72h-6.52l-2.5,7.69-6.21,2.81-7.43-3.71L775,205.9l3.86,6.91-2.64,6.08-7.68,2.69v6.47l8.08,3,2,5.86-3.62,7.26,4.92,4.92,7.14-3.73,5.92,2.48Z" transform="translate(195.21 85.1)"/><path class="cls-1" d="M240.55,766.12a13.21,13.21,0,1,1,13.2-13.21A13.22,13.22,0,0,1,240.55,766.12Zm0-24a10.74,10.74,0,1,0,10.74,10.74A10.75,10.75,0,0,0,240.55,742.17Z" transform="translate(195.21 85.1)"/><path class="cls-1" d="M245.56,785.6h-10l-2.93-8L228.77,776l-7.66,4-7.41-7.41,3.92-7.87-1.3-3.74-8.52-3.15v-9.86L216,745l1.71-3.93-4.15-7.42,7.27-7.26,7.9,4,4.12-1.86,2.7-8.3h10.07l2.55,8.28,4.09,1.63,7.8-3.83,7.39,7.39-4.14,7.42,1.7,3.94,8.25,3v9.86l-8.41,3-1.41,3.73,3.92,7.73L260,779.69l-7.63-3.85-3.71,1.7Zm-8.31-2.47h6.61l2.83-7.41,5.72-2.62,7.11,3.59,4.86-4.76-3.59-7.08L263,759l7.85-2.82V749.8l-7.62-2.8-2.61-6,3.83-6.85-4.83-4.83-7.2,3.54-6.2-2.48-2.37-7.66h-6.45l-2.48,7.63-6.18,2.79-7.36-3.68-4.69,4.69,3.82,6.85-2.61,6-7.62,2.67v6.4l8,3,2,5.82-3.59,7.21,4.88,4.87,7.08-3.7,5.88,2.46Z" transform="translate(195.21 85.1)"/><path class="cls-1" d="M348,749a12.64,12.64,0,1,1,12.64-12.64A12.65,12.65,0,0,1,348,749Zm0-22.81a10.17,10.17,0,1,0,10.17,10.17A10.18,10.18,0,0,0,348,726.16Z" transform="translate(195.21 85.1)"/><path class="cls-1" d="M348,757.2a20.87,20.87,0,1,1,20.87-20.87A20.89,20.89,0,0,1,348,757.2Zm0-39.27a18.4,18.4,0,1,0,18.4,18.4A18.42,18.42,0,0,0,348,717.93Z" transform="translate(195.21 85.1)"/><path class="cls-1" d="M354.52,780.34h-13l-3.94-10.82L332,767.2l-10.32,5.38L312,763l5.27-10.57-1.9-5.46-11.5-4.25v-12.8L315,726l2.48-5.72-5.58-10,9.42-9.41L332,706.19l6-2.7,3.63-11.17h13l3.43,11.15,5.94,2.37,10.5-5.16,9.59,9.59-5.57,10L381,726l11.1,4.09v12.79l-11.34,4.07-2,5.46L384,762.79l-9.63,9.42L364.07,767l-5.41,2.48Zm-11.31-2.47h9.61l3.9-10.19,7.4-3.39,9.77,4.92,7.07-6.92L376,752.55l2.82-7.55,10.79-3.87V731.8l-10.48-3.86-3.39-7.82L381,710.7l-7-7-9.91,4.86-8.05-3.22-3.24-10.53h-9.43L340,705.29l-8,3.63-10.12-5.06L315,710.7l5.26,9.42-3.4,7.83-10.47,3.68V741l11,4.06,2.62,7.54L315,762.47l7.09,7.09,9.73-5.09,7.62,3.19Z" transform="translate(195.21 85.1)"/><path class="cls-1" d="M792.42,733.2a12.64,12.64,0,1,1,12.63-12.64A12.65,12.65,0,0,1,792.42,733.2Zm0-22.81a10.17,10.17,0,1,0,10.17,10.17A10.19,10.19,0,0,0,792.42,710.39Z" transform="translate(195.21 85.1)"/><path class="cls-1" d="M792.42,741.43a20.87,20.87,0,1,1,20.86-20.87A20.89,20.89,0,0,1,792.42,741.43Zm0-39.27a18.4,18.4,0,1,0,18.4,18.4A18.42,18.42,0,0,0,792.42,702.16Z" transform="translate(195.21 85.1)"/><path class="cls-1" d="M798.93,764.57h-13l-3.95-10.83-5.56-2.32-10.31,5.39-9.62-9.62,5.27-10.58-1.9-5.46-11.5-4.25V714.11l11.11-3.9,2.47-5.72-5.57-10,9.41-9.41,10.66,5.32,6-2.69L786,676.55h13l3.44,11.14,5.94,2.38,10.5-5.16,9.59,9.59-5.57,10,2.48,5.73,11.1,4.08v12.79l-11.34,4.07-2,5.46L828.39,747l-9.63,9.42-10.28-5.18-5.41,2.48Zm-11.31-2.47h9.61l3.89-10.2,7.41-3.39,9.77,4.93,7.07-6.93-4.94-9.74,2.83-7.54L834,725.36V716l-10.47-3.85-3.39-7.82,5.26-9.42-7-7-9.91,4.87-8-3.23L797.21,679h-9.43l-3.41,10.5-8,3.62-10.11-5-6.84,6.84,5.26,9.42-3.39,7.83-10.47,3.68v9.32l11,4.06,2.62,7.54-4.94,9.92,7.08,7.08,9.74-5.08,7.62,3.18Z" transform="translate(195.21 85.1)"/><path class="cls-1" d="M915.64,603a12.64,12.64,0,1,1,12.64-12.64A12.65,12.65,0,0,1,915.64,603Zm0-22.81a10.17,10.17,0,1,0,10.17,10.17A10.18,10.18,0,0,0,915.64,580.21Z" transform="translate(195.21 85.1)"/><path class="cls-1" d="M915.64,611.25a20.87,20.87,0,1,1,20.87-20.87A20.89,20.89,0,0,1,915.64,611.25Zm0-39.27a18.4,18.4,0,1,0,18.4,18.4A18.42,18.42,0,0,0,915.64,572Z" transform="translate(195.21 85.1)"/><path class="cls-1" d="M922.15,634.39h-13l-3.94-10.82-5.56-2.33-10.32,5.39L879.68,617l5.26-10.57L883.05,601l-11.51-4.25V583.93l11.11-3.9,2.48-5.72-5.58-10,9.42-9.41,10.65,5.33,6-2.7,3.63-11.17h13l3.43,11.14,5.94,2.38,10.5-5.16,9.59,9.59-5.57,10,2.48,5.73,11.1,4.09v12.78L948.39,601l-2,5.46,5.26,10.39L942,626.26l-10.28-5.19-5.41,2.48Zm-11.31-2.47h9.61l3.9-10.2,7.4-3.39,9.77,4.93,7.07-6.92-4.93-9.75,2.82-7.54,10.79-3.87v-9.33L946.79,582l-3.39-7.82,5.26-9.42-7-7-9.9,4.87-8.06-3.22-3.24-10.53H911l-3.41,10.5-8,3.63-10.12-5.06-6.83,6.84,5.26,9.42-3.4,7.83L874,585.68V595l11,4,2.62,7.55-4.94,9.91,7.09,7.09,9.73-5.09,7.62,3.19Z" transform="translate(195.21 85.1)"/><path class="cls-1" d="M1146.5,331.25a12.64,12.64,0,1,1,12.64-12.64A12.65,12.65,0,0,1,1146.5,331.25Zm0-22.81a10.17,10.17,0,1,0,10.17,10.17A10.18,10.18,0,0,0,1146.5,308.44Z" transform="translate(195.21 85.1)"/><path class="cls-1" d="M1146.5,339.48a20.87,20.87,0,1,1,20.87-20.87A20.89,20.89,0,0,1,1146.5,339.48Zm0-39.27a18.4,18.4,0,1,0,18.4,18.4A18.42,18.42,0,0,0,1146.5,300.21Z" transform="translate(195.21 85.1)"/><path class="cls-1" d="M1153,362.62h-13L1136,351.8l-5.56-2.33-10.32,5.39-9.62-9.62,5.27-10.58-1.9-5.46L1102.4,325V312.16l11.11-3.9,2.48-5.72-5.58-10,9.42-9.41,10.65,5.32,6-2.69,3.63-11.17h13l3.43,11.14,5.94,2.38L1173,283l9.59,9.59-5.57,10,2.48,5.73,11.1,4.08v12.79l-11.34,4.08-2,5.45,5.26,10.39-9.63,9.43-10.28-5.19-5.41,2.48Zm-11.31-2.47h9.61l3.9-10.2,7.4-3.39,9.77,4.93,7.07-6.92-4.93-9.75,2.82-7.54,10.79-3.87v-9.34l-10.48-3.85-3.39-7.82,5.26-9.42-7-7-9.91,4.87-8-3.22-3.24-10.53h-9.43l-3.41,10.5-8,3.63-10.12-5.06-6.83,6.84,5.26,9.42-3.4,7.83-10.47,3.68v9.32l11,4.06,2.62,7.54-4.94,9.92,7.09,7.09,9.73-5.09,7.62,3.19Z" transform="translate(195.21 85.1)"/><path class="cls-1" d="M450.88,387a12.64,12.64,0,1,1,12.64-12.64A12.65,12.65,0,0,1,450.88,387Zm0-22.82a10.18,10.18,0,1,0,10.17,10.18A10.19,10.19,0,0,0,450.88,364.15Z" transform="translate(195.21 85.1)"/><path class="cls-1" d="M450.88,395.2a20.87,20.87,0,1,1,20.87-20.87A20.9,20.9,0,0,1,450.88,395.2Zm0-39.28a18.41,18.41,0,1,0,18.4,18.41A18.42,18.42,0,0,0,450.88,355.92Z" transform="translate(195.21 85.1)"/><path class="cls-1" d="M457.39,418.33h-13l-3.94-10.82-5.56-2.32-10.32,5.39L414.92,401l5.26-10.58-1.89-5.46-11.5-4.25V367.88l11.1-3.91,2.48-5.71-5.58-10,9.42-9.42,10.65,5.33,6-2.69,3.63-11.17h13l3.43,11.14,5.94,2.38,10.51-5.16,9.59,9.59-5.58,10,2.48,5.72,11.1,4.09v12.79l-11.34,4.07-2,5.46,5.26,10.39-9.63,9.42L466.94,405l-5.41,2.47Zm-11.31-2.46h9.61l3.9-10.2,7.41-3.39,9.76,4.93,7.07-6.93-4.93-9.74,2.82-7.54,10.79-3.88v-9.33L482,365.93l-3.39-7.81,5.26-9.43-7-7-9.9,4.86-8.06-3.22-3.24-10.52h-9.43l-3.41,10.5-8,3.62-10.12-5.05-6.83,6.83,5.26,9.43-3.39,7.82-10.48,3.68V379l11,4.06,2.62,7.54-4.93,9.92,7.08,7.08,9.73-5.08,7.62,3.18Z" transform="translate(195.21 85.1)"/><path class="cls-1" d="M441,687.07H409.75l-.22-1c-2-9-4-16.78-5.74-23.69-10.65-42.4-13.51-53.8,20.55-103.7l1-1.49,1,1.49c34.06,49.9,31.2,61.3,20.55,103.7-1.73,6.91-3.7,14.74-5.74,23.69Zm-29.27-2.47H439c2-8.57,3.86-16.11,5.53-22.78,10.33-41.13,13.18-52.49-19.18-100.21-32.36,47.72-29.5,59.08-19.18,100.21C407.86,668.49,409.75,676,411.71,684.6Z" transform="translate(195.21 85.1)"/><rect class="cls-1" x="600.89" y="675.85" width="39.37" height="2.47"/><path class="cls-1" d="M425.48,629.54a12.4,12.4,0,1,1,12.39-12.4A12.42,12.42,0,0,1,425.48,629.54Zm0-22.33a9.93,9.93,0,1,0,9.93,9.93A9.94,9.94,0,0,0,425.48,607.21Z" transform="translate(195.21 85.1)"/><path class="cls-1" d="M384.65,692.31l-.56-2a58.85,58.85,0,0,1-1.46-18.41c1.06-13.37,7-23.74,17.13-30l1.29,2.11c-9.58,5.88-14.95,15.32-16,28.06A58.25,58.25,0,0,0,386,687.5l19.78-19.62,1.73,1.75Z" transform="translate(195.21 85.1)"/><path class="cls-1" d="M466.33,692.31l-22.86-22.68,1.73-1.75L465,687.5a58.54,58.54,0,0,0,.9-15.51c-1-12.7-6.39-22.11-15.95-28l1.29-2.11c10.15,6.23,16.07,16.6,17.13,30a59.2,59.2,0,0,1-1.46,18.41Z" transform="translate(195.21 85.1)"/><rect class="cls-1" x="619.34" y="778.1" width="2.47" height="37.49"/><rect class="cls-1" x="607.61" y="778.1" width="2.47" height="16.46"/><rect class="cls-1" x="631.15" y="778.1" width="2.47" height="16.46"/><path class="cls-1" d="M-144.17,543.5a14.66,14.66,0,0,1-14.65-14.65,14.67,14.67,0,0,1,14.65-14.65,14.67,14.67,0,0,1,14.65,14.65A14.66,14.66,0,0,1-144.17,543.5Zm0-26.83a12.2,12.2,0,0,0-12.18,12.18A12.19,12.19,0,0,0-144.17,541,12.19,12.19,0,0,0-132,528.85,12.2,12.2,0,0,0-144.17,516.67Z" transform="translate(195.21 85.1)"/><rect class="cls-1" x="51.04" y="636.3" width="33.82" height="2.47"/><rect class="cls-1" x="51.04" y="588.87" width="40.67" height="2.47"/><rect class="cls-1" x="51.04" y="563.01" width="44.34" height="2.47"/><rect class="cls-1" x="51.04" y="544.14" width="49.68" height="2.47"/><path class="cls-1" d="M-114.79,592.42h-58.76l-16.17-112.76L-195.21,460l22.29-25.72h57.5L-93.13,460l-5.49,19.62ZM-171.41,590h54.48L-101,479.15l5.18-18.49-20.69-23.87H-171.8l-20.68,23.87,5.18,18.49v.08Z" transform="translate(195.21 85.1)"/><rect class="cls-1" x="17.22" y="636.3" width="33.82" height="2.47"/><rect class="cls-1" x="10.37" y="588.87" width="40.67" height="2.47"/><rect class="cls-1" x="6.7" y="563.01" width="44.34" height="2.47"/><rect class="cls-1" x="1.37" y="544.14" width="49.68" height="2.47"/><path class="cls-1" d="M1264.69,543.5a14.65,14.65,0,1,1,14.65-14.65A14.66,14.66,0,0,1,1264.69,543.5Zm0-26.83a12.18,12.18,0,1,0,12.18,12.18A12.2,12.2,0,0,0,1264.69,516.67Z" transform="translate(195.21 85.1)"/><rect class="cls-1" x="1459.9" y="636.3" width="33.82" height="2.47"/><rect class="cls-1" x="1459.9" y="588.87" width="40.67" height="2.47"/><rect class="cls-1" x="1459.9" y="563.01" width="44.34" height="2.47"/><rect class="cls-1" x="1459.9" y="544.14" width="49.68" height="2.47"/><path class="cls-1" d="M1294.07,592.42h-58.76l-16.17-112.76L1213.65,460l22.29-25.72h57.5L1315.73,460l-5.49,19.62ZM1237.45,590h54.48l15.89-110.81,5.18-18.49-20.69-23.87h-55.24l-20.69,23.87,5.18,18.49v.08Z" transform="translate(195.21 85.1)"/><rect class="cls-1" x="1426.09" y="636.3" width="33.82" height="2.47"/><rect class="cls-1" x="1419.23" y="588.87" width="40.67" height="2.47"/><rect class="cls-1" x="1415.56" y="563.01" width="44.34" height="2.47"/><rect class="cls-1" x="1410.23" y="544.14" width="49.68" height="2.47"/><path class="cls-1" d="M811.44,673.82A32.52,32.52,0,0,1,779,641.33V602.2a32.49,32.49,0,1,1,65,0v39.13A32.53,32.53,0,0,1,811.44,673.82Zm0-101.64a30.06,30.06,0,0,0-30,30v39.13a30,30,0,1,0,60.05,0V602.2A30.06,30.06,0,0,0,811.44,572.18Z" transform="translate(195.21 85.1)"/><rect class="cls-1" x="975.4" y="688.77" width="62.51" height="2.47"/><rect class="cls-1" x="1013.77" y="669.97" width="2.47" height="8.92"/><rect class="cls-1" x="996.55" y="669.97" width="2.47" height="8.92"/><path class="cls-1" d="M821,572.2l-2.45-.27a28.07,28.07,0,0,1,3.09-9.48c3.44-6.26,8.88-9.26,15.72-8.68l-.2,2.45C823.05,555.05,821.06,571.5,821,572.2Z" transform="translate(195.21 85.1)"/><path class="cls-1" d="M801.69,572.2c-.08-.7-2.08-17.15-16.15-16l-.21-2.45c6.85-.58,12.29,2.42,15.73,8.68a27.93,27.93,0,0,1,3.08,9.48Z" transform="translate(195.21 85.1)"/><polygon class="cls-1" points="1058.57 700.51 1037.91 700.51 1037.91 698.04 1056.1 698.04 1056.1 674.78 1058.57 674.78 1058.57 700.51"/><polygon class="cls-1" points="1058.57 755.67 1056.1 755.67 1056.1 732.4 1037.91 732.4 1037.91 729.93 1058.57 729.93 1058.57 755.67"/><rect class="cls-1" x="1037.91" y="713.81" width="19.42" height="2.47"/><polygon class="cls-1" points="975.22 700.51 954.56 700.51 954.56 674.78 957.03 674.78 957.03 698.04 975.22 698.04 975.22 700.51"/><polygon class="cls-1" points="957.03 755.67 954.56 755.67 954.56 729.93 975.22 729.93 975.22 732.4 957.03 732.4 957.03 755.67"/><rect class="cls-1" x="955.79" y="713.81" width="19.42" height="2.47"/><path class="cls-1" d="M70.39,758.7a29.69,29.69,0,0,1-29.65-29.65V693.47a29.65,29.65,0,0,1,59.3,0v35.58A29.68,29.68,0,0,1,70.39,758.7Zm0-92.41a27.21,27.21,0,0,0-27.18,27.18v35.58a27.19,27.19,0,0,0,54.37,0V693.47A27.22,27.22,0,0,0,70.39,666.29Z" transform="translate(195.21 85.1)"/><rect class="cls-1" x="237.19" y="779.8" width="56.83" height="2.47"/><rect class="cls-1" x="271.97" y="762.81" width="2.47" height="8.11"/><rect class="cls-1" x="256.31" y="762.81" width="2.47" height="8.11"/><path class="cls-1" d="M79.18,666.21l-2.45-.27c0-.18,2.14-17.88,17.22-16.61l-.2,2.46c-5.31-.45-9.36,1.8-12,6.68A23.75,23.75,0,0,0,79.18,666.21Z" transform="translate(195.21 85.1)"/><path class="cls-1" d="M61.42,666.21h0l1.23-.14Zm0,0c-.07-.65-1.89-15.48-14.56-14.42l-.21-2.46c15.09-1.27,17.21,16.43,17.22,16.61Z" transform="translate(195.21 85.1)"/><polygon class="cls-1" points="312.92 790.69 294.02 790.69 294.02 788.23 310.45 788.23 310.45 767.19 312.92 767.19 312.92 790.69"/><polygon class="cls-1" points="312.92 840.72 310.45 840.72 310.45 819.68 294.02 819.68 294.02 817.22 312.92 817.22 312.92 840.72"/><rect class="cls-1" x="294.03" y="802.56" width="17.66" height="2.47"/><polygon class="cls-1" points="237.03 790.69 218.14 790.69 218.14 767.19 220.6 767.19 220.6 788.23 237.03 788.23 237.03 790.69"/><polygon class="cls-1" points="220.6 840.72 218.14 840.72 218.14 817.22 237.03 817.22 237.03 819.68 220.6 819.68 220.6 840.72"/><rect class="cls-1" x="219.37" y="802.56" width="17.66" height="2.47"/><path class="cls-1" d="M181,792.16H-40.37a18.5,18.5,0,0,1-18.48-18.48V634.28A18.5,18.5,0,0,1-40.37,615.8H181a18.5,18.5,0,0,1,18.48,18.48v139.4A18.5,18.5,0,0,1,181,792.16ZM-40.37,618.27a16,16,0,0,0-16,16v139.4a16,16,0,0,0,16,16H181a16,16,0,0,0,16-16V634.28a16,16,0,0,0-16-16Z" transform="translate(195.21 85.1)"/><path class="cls-1" d="M181.46,776.77h-222a6.14,6.14,0,0,1-6.14-6.14V635a6.14,6.14,0,0,1,6.14-6.13h222A6.14,6.14,0,0,1,187.6,635V770.63A6.14,6.14,0,0,1,181.46,776.77Zm-222-145.44A3.67,3.67,0,0,0-44.22,635V770.63a3.67,3.67,0,0,0,3.67,3.67h222a3.67,3.67,0,0,0,3.67-3.67V635a3.67,3.67,0,0,0-3.67-3.67Z" transform="translate(195.21 85.1)"/><path class="cls-1" d="M739.43,604.35,716.6,581.52l7.61-7.61a9.58,9.58,0,0,1,13.55,0l9.28,9.28a9.58,9.58,0,0,1,0,13.55Zm-19.34-22.83,19.34,19.34L745.3,595a7.13,7.13,0,0,0,0-10.06L736,575.65a7.13,7.13,0,0,0-10.06,0Z" transform="translate(195.21 85.1)"/><rect class="cls-1" x="631.12" y="626.12" width="110.23" height="2.47" transform="translate(-47.36 755.01) rotate(-45.06)"/><rect class="cls-1" x="638.52" y="633.17" width="110.23" height="2.47" transform="translate(-50.17 762.32) rotate(-45.06)"/><polygon class="cls-1" points="819.2 781.61 834.12 744.46 836.41 745.38 823.6 777.27 855.91 764.85 856.79 767.15 819.2 781.61"/><rect class="cls-1" x="636.36" y="675.95" width="2.47" height="14.15" transform="translate(-100.97 734.96) rotate(-44.94)"/><path class="cls-1" d="M692.35,728.45h-218v-173h218v53.8l-.36.36-49.84,49.85,19.34,19.34,30.86-30.87ZM476.78,726H689.89V653.9l-28.4,28.39-22.83-22.82,51.23-51.23V557.92H476.78Z" transform="translate(195.21 85.1)"/><path class="cls-1" d="M661.49,682.29l-22.83-22.82,79.69-79.7,22.83,22.83Zm-19.34-22.82,19.34,19.34,76.2-76.21-19.34-19.34Z" transform="translate(195.21 85.1)"/><rect class="cls-1" x="670.76" y="667.51" width="215.57" height="2.47"/><rect class="cls-1" x="688.7" y="694.34" width="55.32" height="2.47"/><rect class="cls-1" x="688.7" y="717.65" width="162.01" height="2.47"/><rect class="cls-1" x="688.7" y="740.36" width="149.89" height="2.47"/><rect class="cls-1" x="688.7" y="763.07" width="138.78" height="2.47"/><rect class="cls-1" x="688.7" y="785.63" width="89.85" height="2.47"/><rect class="cls-1" x="679.63" y="654.03" width="12.73" height="2.47"/><rect class="cls-1" x="700.13" y="654.03" width="12.73" height="2.47"/><rect class="cls-1" x="720.81" y="654.03" width="12.73" height="2.47"/><path class="cls-1" d="M590.14,524.62H486.66V421.14H590.14Zm-101-2.46h98.55V423.61H489.13Z" transform="translate(195.21 85.1)"/><path class="cls-1" d="M575,509.43h-73.1v-73.1H575ZM504.32,507h68.17V438.8H504.32Z" transform="translate(195.21 85.1)"/><polygon class="cls-1" points="755.08 579.44 741.05 579.44 741.05 576.98 752.61 576.98 752.61 565.21 755.08 565.21 755.08 579.44"/><polygon class="cls-1" points="714.62 549.89 712.16 549.89 712.16 536.52 725.74 536.52 725.74 538.99 714.62 538.99 714.62 549.89"/><polygon class="cls-1" points="725.74 579.44 712.16 579.44 712.16 565.21 714.62 565.21 714.62 576.98 725.74 576.98 725.74 579.44"/><polygon class="cls-1" points="755.08 549.89 752.61 549.89 752.61 538.99 741.05 538.99 741.05 536.52 755.08 536.52 755.08 549.89"/><rect class="cls-1" x="692.42" y="488.45" width="2.47" height="19.02"/><rect class="cls-1" x="703.77" y="488.45" width="2.47" height="19.02"/><rect class="cls-1" x="715.13" y="488.45" width="2.47" height="19.02"/><rect class="cls-1" x="726.48" y="488.45" width="2.47" height="19.02"/><rect class="cls-1" x="737.91" y="488.45" width="2.47" height="19.02"/><rect class="cls-1" x="749.27" y="488.45" width="2.47" height="19.02"/><rect class="cls-1" x="760.62" y="488.45" width="2.47" height="19.02"/><rect class="cls-1" x="771.98" y="488.45" width="2.47" height="19.02"/><rect class="cls-1" x="692.42" y="608.49" width="2.47" height="19.02"/><rect class="cls-1" x="703.77" y="608.49" width="2.47" height="19.02"/><rect class="cls-1" x="715.13" y="608.49" width="2.47" height="19.02"/><rect class="cls-1" x="726.48" y="608.49" width="2.47" height="19.02"/><rect class="cls-1" x="737.91" y="608.49" width="2.47" height="19.02"/><rect class="cls-1" x="749.27" y="608.49" width="2.47" height="19.02"/><rect class="cls-1" x="760.62" y="608.49" width="2.47" height="19.02"/><rect class="cls-1" x="771.98" y="608.49" width="2.47" height="19.02"/><rect class="cls-1" x="663.9" y="596.53" width="19.02" height="2.47"/><rect class="cls-1" x="663.9" y="585.17" width="19.02" height="2.47"/><rect class="cls-1" x="663.9" y="573.82" width="19.02" height="2.47"/><rect class="cls-1" x="663.9" y="562.46" width="19.02" height="2.47"/><rect class="cls-1" x="663.9" y="551.03" width="19.02" height="2.47"/><rect class="cls-1" x="663.9" y="539.68" width="19.02" height="2.47"/><rect class="cls-1" x="663.9" y="528.32" width="19.02" height="2.47"/><rect class="cls-1" x="663.9" y="516.97" width="19.02" height="2.47"/><rect class="cls-1" x="783.94" y="596.53" width="19.02" height="2.47"/><rect class="cls-1" x="783.94" y="585.17" width="19.02" height="2.47"/><rect class="cls-1" x="783.94" y="573.82" width="19.02" height="2.47"/><rect class="cls-1" x="783.94" y="562.46" width="19.02" height="2.47"/><rect class="cls-1" x="783.94" y="551.03" width="19.02" height="2.47"/><rect class="cls-1" x="783.94" y="539.68" width="19.02" height="2.47"/><rect class="cls-1" x="783.94" y="528.32" width="19.02" height="2.47"/><rect class="cls-1" x="783.94" y="516.97" width="19.02" height="2.47"/><path class="cls-1" d="M637.33,354.67l-1.73-1.75a26.09,26.09,0,0,1,36.39-.33l-1.71,1.78a23.61,23.61,0,0,0-32.95.3Z" transform="translate(195.21 85.1)"/><path class="cls-1" d="M643.68,360.37,642,358.6a17.22,17.22,0,0,1,23.66-.34L664,360.08a14.72,14.72,0,0,0-20.27.29Z" transform="translate(195.21 85.1)"/><path class="cls-1" d="M650.32,366.11l-1.93-1.54a7.09,7.09,0,0,1,5.58-2.69,7.18,7.18,0,0,1,5.21,2.27l-1.8,1.68a4.65,4.65,0,0,0-7.06.28Z" transform="translate(195.21 85.1)"/><path class="cls-1" d="M704.58,546.17H636V516.73h68.61Zm-66.14-2.47h63.68V519.19H638.44Z" transform="translate(195.21 85.1)"/><rect class="cls-1" x="882.26" y="615.31" width="8.08" height="2.47"/><path class="cls-1" d="M650.33,518h-2.47V507.63a16.29,16.29,0,0,0-5.1-12.39l-.35-.32c-6-5.56-8.49-7.87-9.79-16.6v-.09c-1.39-20.52-2-25.47-10.49-42.6-.24-.42-.49-.82-.73-1.21-1-1.62-2-3.16-1.24-4.67s2.79-2.27,7.38-2.78c3-.34,6.18.93,9.21,3.65a34.1,34.1,0,0,1,7.79,11.06c-.25-19.15-.94-54.46-.95-54.89,0-7.53,3.59-15.5,10.23-15.5,4.44,0,9.73,2.69,9.73,15.47,0,8.31-.79,64.54-.8,65.11l-2.47,0c0-.57.8-56.79.8-65.08,0-8.63-2.44-13-7.26-13-5.65,0-7.76,8-7.76,13,0,.5,1,52.53,1,64.52h-2.47c0-4.77-4.15-14-9.51-18.82-2.54-2.28-5-3.3-7.29-3-4.79.53-5.37,1.27-5.44,1.41s.67,1.59,1.11,2.29c.26.41.53.85.8,1.32l0,.06c8.7,17.51,9.36,23,10.75,43.51,1.17,7.83,3.15,9.67,9,15.1l.34.32a18.46,18.46,0,0,1,5.89,14.37Z" transform="translate(195.21 85.1)"/><path class="cls-1" d="M680.46,452H678V423.05c0-1.91-.53-8.14-7.34-8.14-5.3,0-7.53,6.74-7.56,6.81l-2.35-.76c.11-.34,2.8-8.52,9.91-8.52s9.8,5.72,9.8,10.61Z" transform="translate(195.21 85.1)"/><path class="cls-1" d="M696,452h-2.47v-25c0-3-2.81-8.72-6.65-8.72-4.44,0-6.49,5.21-6.51,5.27l-2.3-.88c.1-.28,2.65-6.85,8.81-6.85,5.66,0,9.12,7.23,9.12,11.18Z" transform="translate(195.21 85.1)"/><path class="cls-1" d="M692.92,518h-2.46v-10.9c0-4.31,2.64-8.52,5.71-13.39,3.49-5.56,7.45-11.85,8.35-19.78l0-.12c1.75-8.32,2.72-23.25,2.72-42,0-4.47-1.8-9.29-4.71-9.29s-5.72,7.27-6.57,10.79l-2.4-.59c.31-1.29,3.25-12.66,9-12.66,4.66,0,7.18,6.05,7.18,11.75,0,18.91-1,34-2.76,42.49-1,8.46-5.09,15-8.71,20.75-2.86,4.55-5.34,8.48-5.34,12.08Z" transform="translate(195.21 85.1)"/><path class="cls-1" d="M545.6,298.62a7.12,7.12,0,0,1-7.11-7.11V274.63a7.11,7.11,0,0,1,14.22,0v16.88A7.12,7.12,0,0,1,545.6,298.62Zm0-28.63a4.64,4.64,0,0,0-4.64,4.64v16.88a4.64,4.64,0,0,0,9.28,0V274.63A4.64,4.64,0,0,0,545.6,270Z" transform="translate(195.21 85.1)"/><path class="cls-1" d="M545.6,391.35a42.25,42.25,0,0,1-42.21-42.21V269a19.69,19.69,0,0,1,19.67-19.67h45.08A19.69,19.69,0,0,1,587.81,269v80.14A42.25,42.25,0,0,1,545.6,391.35ZM523.06,251.8A17.22,17.22,0,0,0,505.85,269v80.14a39.75,39.75,0,1,0,79.49,0V269a17.21,17.21,0,0,0-17.2-17.2Z" transform="translate(195.21 85.1)"/><rect class="cls-1" x="699.84" y="369.74" width="35.1" height="2.47"/><rect class="cls-1" x="746.71" y="369.74" width="35.1" height="2.47"/><rect class="cls-1" x="1120.92" y="535.68" width="36.25" height="2.47" transform="translate(565.75 1619.55) rotate(-77.63)"/><rect class="cls-1" x="1165.54" y="518.79" width="2.47" height="36.25" transform="translate(107.27 347.57) rotate(-12.37)"/><rect class="cls-1" x="1318.52" y="638.48" width="59.21" height="2.47"/><rect class="cls-1" x="1207.19" y="677.34" width="201.63" height="2.47"/><rect class="cls-1" x="1215.06" y="664.31" width="12.73" height="2.47"/><rect class="cls-1" x="1234.15" y="664.31" width="12.73" height="2.47"/><rect class="cls-1" x="1253.42" y="664.31" width="12.73" height="2.47"/><rect class="cls-1" x="1248.81" y="717.35" width="22.24" height="2.47"/><rect class="cls-1" x="1283.12" y="717.35" width="81.1" height="2.47"/><rect class="cls-1" x="1223.65" y="699.06" width="38.18" height="2.47"/><rect class="cls-1" x="1276.49" y="699.06" width="38.18" height="2.47"/><rect class="cls-1" x="1276.34" y="735.92" width="83.39" height="2.47"/><rect class="cls-1" x="1276.34" y="754.5" width="38.18" height="2.47"/><rect class="cls-1" x="1252.3" y="772.9" width="92.28" height="2.47"/><rect class="cls-1" x="1260.3" y="791.34" width="22.25" height="2.47"/><rect class="cls-1" x="1294.74" y="791.34" width="54.18" height="2.47"/><rect class="cls-1" x="1223.42" y="754.5" width="38.52" height="2.47"/><path class="cls-1" d="M1164.86,728.8H1010.74V567.22h204.1v78.71l-1.83-1a99.94,99.94,0,0,1-14.26-9.52,101.19,101.19,0,0,1-14.55,9.68c-8.45,4.66-21.47,10.3-36.11,11.15.11,19.5,3,47.21,15.78,70.76Zm-151.65-2.47h147.52c-12.46-24.07-15.11-51.94-15.11-71.28v-1.19l1.18-.05c28-1.11,50.91-20.76,51.13-20.95l.81-.71.81.71a94.48,94.48,0,0,0,12.82,8.85v-72H1013.21Z" transform="translate(195.21 85.1)"/><path class="cls-1" d="M1198.75,748.46l-.63-.37a64.71,64.71,0,0,1-20.68-19.83c-14.41-21.24-18.22-49.72-18.22-61.82v-1l1-.21A114.54,114.54,0,0,0,1198,648.87l.72-.52.73.52a103.88,103.88,0,0,0,14.66,8.33h0a108.83,108.83,0,0,0,23.17,8l1,.21v1a132.59,132.59,0,0,1-6.52,37.39c-6.81,20.75-17.71,35.64-32.38,44.26Zm-37-81a127.84,127.84,0,0,0,3.15,23.86c3.13,13.92,8.05,25.89,14.63,35.58a62.54,62.54,0,0,0,19.27,18.72c13.82-8.37,24.14-22.67,30.66-42.53a131.92,131.92,0,0,0,6.38-35.63,111.91,111.91,0,0,1-22.71-8h0a111.78,111.78,0,0,1-14.34-8.06A118.08,118.08,0,0,1,1161.7,667.43Z" transform="translate(195.21 85.1)"/><path class="cls-1" d="M1198.75,764.49l-.56-.28c-15.41-7.72-27.69-19.85-36.49-36.06-13.29-24.48-16.08-53.26-16.08-73.1v-1.19l1.18-.05c28-1.11,50.91-20.76,51.13-20.95l.81-.71.81.71a97,97,0,0,0,14.65,9.89h0c8.5,4.72,21.73,10.48,36.49,11.06l1.18.05v1.19c0,30.93-6.83,86.25-52.57,109.16Zm-50.66-108.27c.11,19.5,3,47.21,15.78,70.76,8.44,15.55,20.18,27.24,34.88,34.75,43.49-22.21,50.48-75.07,50.65-105.51-14.76-.85-27.89-6.59-36.39-11.31a99.94,99.94,0,0,1-14.26-9.52,101.19,101.19,0,0,1-14.55,9.68C1175.75,649.73,1162.73,655.37,1148.09,656.22Z" transform="translate(195.21 85.1)"/><rect class="cls-1" x="985.95" y="615.31" width="13.45" height="2.47"/><path class="cls-1" d="M791.55,460.06h-36v-36h36Zm-33.49-2.47h31v-31h-31Z" transform="translate(195.21 85.1)"/><rect class="cls-1" x="952.04" y="558.34" width="33.49" height="2.47"/><rect class="cls-1" x="952.04" y="572.98" width="33.49" height="2.47"/><rect class="cls-1" x="999.71" y="558.34" width="33.49" height="2.47"/><rect class="cls-1" x="999.71" y="572.98" width="33.49" height="2.47"/><polygon class="cls-1" points="1050.08 602.08 935.28 602.08 935.28 452.62 990.47 452.62 990.47 455.09 937.75 455.09 937.75 599.61 1047.61 599.61 1047.61 578.45 1050.08 578.45 1050.08 602.08"/><path class="cls-1" d="M853.36,548.49H741.57a13.86,13.86,0,0,1-13.85-13.85V358.85A13.86,13.86,0,0,1,741.57,345h53.69v2.47H741.57a11.39,11.39,0,0,0-11.38,11.38V534.64A11.39,11.39,0,0,0,741.57,546H853.36a11.4,11.4,0,0,0,11.38-11.38V493.35h2.47v41.29A13.87,13.87,0,0,1,853.36,548.49Z" transform="translate(195.21 85.1)"/><polygon class="cls-1" points="1050.08 602.08 935.28 602.08 935.28 452.62 990.47 452.62 990.47 455.09 937.75 455.09 937.75 599.61 1047.61 599.61 1047.61 578.45 1050.08 578.45 1050.08 602.08"/><rect class="cls-1" x="951.93" y="475.82" width="38.55" height="2.47"/><rect class="cls-1" x="950.69" y="477.06" width="2.47" height="13.03"/><rect class="cls-1" x="951.93" y="488.86" width="38.55" height="2.47"/><polygon class="cls-1" points="990.47 491.32 950.69 491.32 950.69 475.82 990.47 475.82 990.47 478.29 953.16 478.29 953.16 488.86 990.47 488.86 990.47 491.32"/><path class="cls-1" d="M1080.22,494.58H864.74V439.76h206.12V294.92a3.34,3.34,0,0,0-3.33-3.34H818.11a3.35,3.35,0,0,0-3.34,3.34v52.55H794V282.11a11.53,11.53,0,0,1,11.51-11.52h274.68a11.53,11.53,0,0,1,11.51,11.52v201A11.53,11.53,0,0,1,1080.22,494.58Zm-213-2.47h213a9.06,9.06,0,0,0,9-9.05V282.11a9.06,9.06,0,0,0-9-9.05H805.54a9.06,9.06,0,0,0-9,9.05V345h15.82V294.92a5.8,5.8,0,0,1,5.8-5.8h249.42a5.8,5.8,0,0,1,5.8,5.8V442.23H867.21Z" transform="translate(195.21 85.1)"/><rect class="cls-1" x="1059.95" y="526.09" width="2.47" height="52.35"/><rect class="cls-1" x="1047.61" y="526.09" width="2.47" height="52.35"/><rect class="cls-1" x="990.47" y="488.86" width="18.28" height="2.47"/><rect class="cls-1" x="999.71" y="509.2" width="9.05" height="2.47"/><rect class="cls-1" x="998.47" y="510.44" width="2.47" height="33.49"/><rect class="cls-1" x="999.71" y="542.69" width="33.49" height="2.47"/><rect class="cls-1" x="1031.96" y="526.09" width="2.47" height="17.83"/><rect class="cls-1" x="990.47" y="452.62" width="18.28" height="2.47"/><rect class="cls-1" x="990.47" y="475.82" width="18.28" height="2.47"/><rect class="cls-1" x="990.47" y="488.86" width="18.28" height="2.47"/><rect class="cls-1" x="990.47" y="475.82" width="18.28" height="2.47"/><polygon class="cls-1" points="1034.43 545.16 998.47 545.16 998.47 509.2 1008.75 509.2 1008.75 511.67 1000.94 511.67 1000.94 542.69 1031.96 542.69 1031.96 526.1 1034.43 526.1 1034.43 545.16"/><path class="cls-1" d="M1073.33,442.23H864.74V358.85a11.4,11.4,0,0,0-11.38-11.38H812.31V294.92a5.8,5.8,0,0,1,5.8-5.8h249.42a5.8,5.8,0,0,1,5.8,5.8Zm-206.12-2.47h203.65V294.92a3.34,3.34,0,0,0-3.33-3.34H818.11a3.35,3.35,0,0,0-3.34,3.34V345h38.59a13.87,13.87,0,0,1,13.85,13.85Z" transform="translate(195.21 85.1)"/><path class="cls-1" d="M867.21,441h-2.47V358.85a11.4,11.4,0,0,0-11.38-11.38H813.54V345h39.82a13.87,13.87,0,0,1,13.85,13.85Z" transform="translate(195.21 85.1)"/><polygon class="cls-1" points="1050.08 526.1 1047.61 526.1 1047.61 455.09 1008.75 455.09 1008.75 452.62 1050.08 452.62 1050.08 526.1"/><polygon class="cls-1" points="1034.43 526.1 1031.96 526.1 1031.96 511.67 1008.75 511.67 1008.75 509.2 1034.43 509.2 1034.43 526.1"/><polygon class="cls-1" points="1034.66 491.32 1008.75 491.32 1008.75 488.86 1032.19 488.86 1032.19 478.29 1008.75 478.29 1008.75 475.82 1034.66 475.82 1034.66 491.32"/><rect class="cls-1" x="1008.75" y="509.2" width="24.44" height="2.47"/><rect class="cls-1" x="1031.96" y="510.44" width="2.47" height="15.66"/><rect class="cls-1" x="1061.19" y="543.25" width="224.53" height="2.47"/><rect class="cls-1" x="1123.29" y="561.21" width="29.72" height="2.47"/><path class="cls-1" d="M1047.73,333.41H838.37V311.05h209.36Zm-206.9-2.47h204.43V313.52H840.83Z" transform="translate(195.21 85.1)"/><path class="cls-1" d="M1047.73,406.32H995.19V353.78h52.54Zm-50.07-2.47h47.6v-47.6h-47.6Z" transform="translate(195.21 85.1)"/><rect class="cls-1" x="1191.64" y="505.32" width="50.07" height="2.47"/><path class="cls-1" d="M969.31,406.32H916.78V353.78h52.53Zm-50.06-2.47h47.59v-47.6H919.25Z" transform="translate(195.21 85.1)"/><rect class="cls-1" x="1113.23" y="505.32" width="50.07" height="2.47"/><polygon class="cls-1" points="1086.24 491.42 1061.54 491.42 1061.54 488.95 1083.77 488.95 1083.77 441.35 1060.94 441.35 1060.94 438.88 1086.24 438.88 1086.24 491.42"/><rect class="cls-1" x="1061.19" y="505.32" width="23.82" height="2.47"/><rect class="cls-1" x="894.65" y="510.13" width="36.93" height="2.47" transform="translate(410.7 1376.59) rotate(-77.45)"/><rect class="cls-1" x="971.42" y="492.9" width="2.47" height="36.93" transform="translate(107.29 308.84) rotate(-12.56)"/><rect class="cls-1" x="1083.43" y="613.61" width="109.58" height="2.47"/><rect class="cls-1" x="987.49" y="441.52" width="10.74" height="2.47"/><path class="cls-1" d="M1239.31,234.92H1024.88a14.09,14.09,0,0,1-14.08-14.08V86.08A14.09,14.09,0,0,1,1024.88,72h214.43a14.09,14.09,0,0,1,14.08,14.08V220.84A14.09,14.09,0,0,1,1239.31,234.92ZM1024.88,74.46a11.63,11.63,0,0,0-11.61,11.62V220.84a11.63,11.63,0,0,0,11.61,11.62h214.43a11.63,11.63,0,0,0,11.62-11.62V86.08a11.63,11.63,0,0,0-11.62-11.62Z" transform="translate(195.21 85.1)"/><path class="cls-1" d="M1241.18,148.29H1023V85.47h218.16Zm-215.7-2.46h213.23V87.94H1025.48Z" transform="translate(195.21 85.1)"/><rect class="cls-1" x="1234.55" y="196.28" width="34.29" height="2.47"/><rect class="cls-1" x="1234.55" y="208.97" width="34.29" height="2.47"/><path class="cls-1" d="M1204.84,129.76a12.38,12.38,0,1,1,12.38-12.38A12.4,12.4,0,0,1,1204.84,129.76Zm0-22.29a9.91,9.91,0,1,0,9.91,9.91A9.92,9.92,0,0,0,1204.84,107.47Z" transform="translate(195.21 85.1)"/><path class="cls-1" d="M1241.18,221.45H1023V158.63h218.16ZM1025.48,219h213.23V161.09H1025.48Z" transform="translate(195.21 85.1)"/><rect class="cls-1" x="1234.55" y="269.44" width="34.29" height="2.47"/><rect class="cls-1" x="1234.55" y="282.12" width="34.29" height="2.47"/><path class="cls-1" d="M1204.84,204.32a12.38,12.38,0,1,1,12.38-12.38A12.39,12.39,0,0,1,1204.84,204.32Zm0-22.29a9.91,9.91,0,1,0,9.91,9.91A9.93,9.93,0,0,0,1204.84,182Z" transform="translate(195.21 85.1)"/><rect class="cls-1" x="1303.24" y="318.79" width="2.47" height="31.35"/><rect class="cls-1" x="1349.9" y="318.79" width="2.47" height="31.35"/><rect class="cls-1" x="1285.46" y="348.93" width="84.7" height="2.47"/><path class="cls-1" d="M688,138.89H415.84a11.54,11.54,0,0,1-11.52-11.52V-73.58a11.49,11.49,0,0,1,.13-1.76A11.38,11.38,0,0,1,406.29-80c.1-.16.21-.31.32-.46a11.45,11.45,0,0,1,9.23-4.62H688a11.45,11.45,0,0,1,9.23,4.62c.11.15.22.3.32.46a11.38,11.38,0,0,1,1.84,4.68h0a12.91,12.91,0,0,1,.13,1.76v201A11.54,11.54,0,0,1,688,138.89ZM415.84-82.63A9,9,0,0,0,408.58-79l-.25.36A8.9,8.9,0,0,0,406.89-75a9,9,0,0,0-.1,1.38v201a9.06,9.06,0,0,0,9,9H688a9.06,9.06,0,0,0,9.05-9V-73.58A9,9,0,0,0,697-75a9,9,0,0,0-1.44-3.68l-.26-.36A9,9,0,0,0,688-82.63Z" transform="translate(195.21 85.1)"/><path class="cls-1" d="M681.16,86.54h-261V-60.77a5.8,5.8,0,0,1,5.8-5.8H675.35a5.81,5.81,0,0,1,5.81,5.8ZM422.6,84.07H678.69V-60.77a3.35,3.35,0,0,0-3.34-3.34H425.93a3.34,3.34,0,0,0-3.33,3.34Z" transform="translate(195.21 85.1)"/><rect class="cls-1" x="600.77" y="187.89" width="292.77" height="2.47"/><rect class="cls-1" x="732.24" y="204.91" width="30.68" height="2.47"/><rect class="cls-1" x="504.03" y="154.2" width="36.43" height="2.47" transform="translate(452.15 716.47) rotate(-77.44)"/><rect class="cls-1" x="580.22" y="137.22" width="2.47" height="36.43" transform="translate(175.33 215.3) rotate(-12.56)"/><rect class="cls-1" x="692.51" y="257.08" width="109.12" height="2.47"/><path class="cls-1" d="M317.86,476l-13.69-4.29,28.06-27.9,4,13.5Zm-9.06-5.42,8.35,2.62,16.29-16.58L331,448.51Z" transform="translate(195.21 85.1)"/><polygon class="cls-1" points="567.38 615.92 511.85 560.6 513.59 558.86 567.39 612.45 583.16 597.1 529.17 542.96 530.92 541.22 586.67 597.13 567.38 615.92"/><rect class="cls-1" x="355.45" y="450.94" width="2.47" height="77.54" transform="translate(-46.33 479.08) rotate(-44.84)"/><rect class="cls-1" x="349.45" y="457.64" width="2.47" height="77.54" transform="translate(-52.8 476.8) rotate(-44.84)"/><polygon class="cls-1" points="510.58 548.2 434.41 472.13 422.83 471.52 398.44 447.3 417.88 428.19 442.43 452.73 442.43 463.86 518.17 539.9 516.42 541.64 439.96 464.88 439.96 453.76 417.87 431.66 401.95 447.31 423.9 469.11 435.48 469.72 435.82 470.05 512.32 546.45 510.58 548.2"/><polygon class="cls-1" points="508.23 531.67 506.49 529.92 539.62 497.11 563.24 504.72 592.57 475.24 589.2 456.96 559.96 486.35 536.84 479.07 529.4 455.96 558.58 426.49 540.66 422.59 511.18 452.21 518.7 475.68 485.49 508.84 483.75 507.1 515.89 475 508.37 451.54 539.86 419.89 563.49 425.04 532.21 456.63 538.8 477.1 559.27 483.54 590.77 451.88 595.24 476.06 563.92 507.54 540.29 499.91 508.23 531.67"/><path class="cls-1" d="M225.91,526.55a17.39,17.39,0,0,1-17.37-17.37,17.19,17.19,0,0,1,3.05-9.84l-.12-.13.83-.83a17.89,17.89,0,0,1,2.78-2.79l68-68.18,24.7,24.66-68.47,68.11a17.52,17.52,0,0,1-2.52,2.5l-.83.8-.1-.1A17.41,17.41,0,0,1,225.91,526.55ZM214.15,500a14.76,14.76,0,0,0-3.15,9.16,14.93,14.93,0,0,0,14.91,14.9,14.75,14.75,0,0,0,9.32-3.28l.05,0a15.18,15.18,0,0,0,2.2-2.19l.08-.1,66.77-66.4L283.12,430.9l-66.39,66.54-.06,0a15.37,15.37,0,0,0-2.48,2.49Z" transform="translate(195.21 85.1)"/><path class="cls-1" d="M114.61,183.36a13,13,0,0,1-3-.3,4.38,4.38,0,0,1-1.94-1,3.7,3.7,0,0,1-1-1.76,10.05,10.05,0,0,1-.3-2.66v-5.2a10.13,10.13,0,0,1,.3-2.65,3.73,3.73,0,0,1,1-1.77,4.38,4.38,0,0,1,1.94-1,13,13,0,0,1,3-.3h11.5V170H114.78a6,6,0,0,0-1.4.14,1.81,1.81,0,0,0-.86.45,1.69,1.69,0,0,0-.44.84,5.7,5.7,0,0,0-.12,1.27v4.87a5.73,5.73,0,0,0,.12,1.28,1.58,1.58,0,0,0,1.32,1.27,6.85,6.85,0,0,0,1.41.12h11.3v3.16Z" transform="translate(195.21 85.1)"/><path class="cls-1" d="M146,179.47h-3.7l-.53,3.89h-2.39l.51-3.89H137.3l.34-2.38h2.55l.54-3.89h-2.6l.34-2.39H141l.56-4H144l-.56,4h3.7l.56-4h2.36l-.56,4h2.58l-.32,2.39h-2.6l-.51,3.89h2.57l-.31,2.38h-2.6l-.54,3.89h-2.36Zm-3.38-2.38h3.72l.51-3.89h-3.7Z" transform="translate(195.21 85.1)"/><path class="cls-1" d="M649.69,252.7v-6.62H637.53v6.62h-3.7V236.11h3.7v6.76h12.16v-6.76h3.67V252.7Z" transform="translate(195.21 85.1)"/><path class="cls-1" d="M662.21,252.7V239.3h-7v-3.19h17.63v3.19h-7v13.4Z" transform="translate(195.21 85.1)"/><path class="cls-1" d="M697.57,252.7V241.78l-8.1,10.58a2.25,2.25,0,0,1-3.26,0l-8.07-10.58V252.7h-3.36V237.26a1.28,1.28,0,0,1,.57-1.15,2.64,2.64,0,0,1,1.43-.36,2.52,2.52,0,0,1,1,.18,1.89,1.89,0,0,1,.71.6L687.89,249l9.43-12.42a2,2,0,0,1,.67-.6,2.24,2.24,0,0,1,1-.18,2.6,2.6,0,0,1,1.42.36,1.28,1.28,0,0,1,.57,1.15V252.7Z" transform="translate(195.21 85.1)"/><path class="cls-1" d="M710,252.7a12.42,12.42,0,0,1-3-.31,4.28,4.28,0,0,1-1.94-1,3.72,3.72,0,0,1-1-1.75,10.1,10.1,0,0,1-.3-2.66v-10.9h3.67v10.75a4.73,4.73,0,0,0,.14,1.23,1.68,1.68,0,0,0,.47.83,2.12,2.12,0,0,0,.91.47,5.81,5.81,0,0,0,1.45.15h9.85v3.16Z" transform="translate(195.21 85.1)"/><path class="cls-1" d="M277.28,599.46a12.36,12.36,0,0,1-3-.31,4.28,4.28,0,0,1-1.94-1,3.59,3.59,0,0,1-1-1.75,10.1,10.1,0,0,1-.3-2.66v-5.21a10.18,10.18,0,0,1,.3-2.65,3.62,3.62,0,0,1,1-1.76,4.28,4.28,0,0,1,1.94-1,12.87,12.87,0,0,1,3-.31h11.5v3.19H277.45a6.05,6.05,0,0,0-1.4.13,1.81,1.81,0,0,0-.86.45,1.69,1.69,0,0,0-.44.84,5.86,5.86,0,0,0-.12,1.28v4.86a5.77,5.77,0,0,0,.12,1.29,1.7,1.7,0,0,0,.44.83,1.79,1.79,0,0,0,.87.44,7,7,0,0,0,1.41.12h11.31v3.16Z" transform="translate(195.21 85.1)"/><path class="cls-1" d="M290.68,599.46v-3.14h12.6a2.72,2.72,0,0,0,1.43-.28,1.24,1.24,0,0,0,.44-1.13V594a1.31,1.31,0,0,0-.44-1.11,2.44,2.44,0,0,0-1.41-.32h-7.9a8.67,8.67,0,0,1-2.3-.26,3.3,3.3,0,0,1-1.45-.78,2.83,2.83,0,0,1-.74-1.31,7.33,7.33,0,0,1-.21-1.86v-.83a7.58,7.58,0,0,1,.27-2.16,3.28,3.28,0,0,1,.83-1.45,3.38,3.38,0,0,1,1.46-.8,7.88,7.88,0,0,1,2.14-.26h5.15V586h-4.81a2,2,0,0,0-1.26.33,1.7,1.7,0,0,0-.4,1.32v.54a1.45,1.45,0,0,0,.37,1.11,1.93,1.93,0,0,0,1.26.32h7.76a10.49,10.49,0,0,1,2.35.23,3.9,3.9,0,0,1,1.57.75,2.86,2.86,0,0,1,.87,1.31,6,6,0,0,1,.27,1.92v1.31a6.43,6.43,0,0,1-.27,2,2.89,2.89,0,0,1-.87,1.32,4,4,0,0,1-1.57.76,9.88,9.88,0,0,1-2.35.24Z" transform="translate(195.21 85.1)"/><path class="cls-1" d="M310.35,599.46v-3.14H323a2.72,2.72,0,0,0,1.43-.28c.3-.18.44-.56.44-1.13V594a1.28,1.28,0,0,0-.44-1.11,2.44,2.44,0,0,0-1.41-.32h-7.9a8.73,8.73,0,0,1-2.3-.26,3.21,3.21,0,0,1-1.44-.78,2.76,2.76,0,0,1-.75-1.31,7.85,7.85,0,0,1-.2-1.86v-.83a8,8,0,0,1,.26-2.16,3.07,3.07,0,0,1,2.29-2.25,7.88,7.88,0,0,1,2.14-.26h5.16V586h-4.82a2,2,0,0,0-1.25.33,1.66,1.66,0,0,0-.4,1.32v.54a1.45,1.45,0,0,0,.36,1.11,2,2,0,0,0,1.27.32h7.75a10.42,10.42,0,0,1,2.35.23,3.9,3.9,0,0,1,1.57.75,2.78,2.78,0,0,1,.87,1.31,6,6,0,0,1,.27,1.92v1.31a6.43,6.43,0,0,1-.27,2,2.81,2.81,0,0,1-.87,1.32,4,4,0,0,1-1.57.76,9.82,9.82,0,0,1-2.35.24Z" transform="translate(195.21 85.1)"/><path class="cls-1" d="M1002.06,777H841.75V693.63h160.31Zm-157.85-2.47H999.59V696.1H844.21Z" transform="translate(195.21 85.1)"/><path class="cls-1" d="M896.6,761.4V709.27l52.13,26.06Zm2.47-48.14v44.15l44.14-22.08Z" transform="translate(195.21 85.1)"/><path class="cls-1" d="M382.68,136.81H209.24V-85.1H382.68Zm-171-2.47H380.22v-217H211.7Z" transform="translate(195.21 85.1)"/><rect class="cls-1" x="432.8" y="1.23" width="2.47" height="219.44"/><polygon class="cls-1" points="459.32 247.51 459.32 220.67 461.78 220.67 461.78 242.07 473.57 231.73 485.72 242.12 485.72 220.67 488.19 220.67 488.19 247.47 473.59 234.99 459.32 247.51"/></svg>